%TF.GenerationSoftware,KiCad,Pcbnew,6.0.2+dfsg-1*%
%TF.CreationDate,2022-10-12T23:29:13+02:00*%
%TF.ProjectId,project_satan,70726f6a-6563-4745-9f73-6174616e2e6b,rev?*%
%TF.SameCoordinates,Original*%
%TF.FileFunction,Soldermask,Top*%
%TF.FilePolarity,Negative*%
%FSLAX46Y46*%
G04 Gerber Fmt 4.6, Leading zero omitted, Abs format (unit mm)*
G04 Created by KiCad (PCBNEW 6.0.2+dfsg-1) date 2022-10-12 23:29:13*
%MOMM*%
%LPD*%
G01*
G04 APERTURE LIST*
%ADD10C,0.900000*%
G04 APERTURE END LIST*
%TO.C,REF\u002A\u002A*%
G36*
X70155348Y-40762221D02*
G01*
X70146790Y-40927881D01*
X70120730Y-41192100D01*
X70077172Y-41554830D01*
X70016121Y-42016028D01*
X69967587Y-42364855D01*
X69891521Y-42907127D01*
X69828266Y-43367737D01*
X69775671Y-43764095D01*
X69731583Y-44113607D01*
X69693849Y-44433681D01*
X69660315Y-44741725D01*
X69628830Y-45055147D01*
X69608847Y-45265667D01*
X69596030Y-45459543D01*
X69586371Y-45718341D01*
X69579889Y-46021042D01*
X69576604Y-46346629D01*
X69576536Y-46674084D01*
X69579704Y-46982389D01*
X69586127Y-47250526D01*
X69595826Y-47457478D01*
X69606709Y-47569903D01*
X69715470Y-48029667D01*
X69888305Y-48438550D01*
X70118114Y-48782816D01*
X70353686Y-49014967D01*
X70526349Y-49139977D01*
X70715187Y-49248673D01*
X70934741Y-49346273D01*
X71199556Y-49437994D01*
X71524175Y-49529057D01*
X71923142Y-49624678D01*
X72255307Y-49697304D01*
X72462896Y-49745863D01*
X72607789Y-49797404D01*
X72726022Y-49870792D01*
X72853635Y-49984892D01*
X72908452Y-50039206D01*
X73241424Y-50441551D01*
X73488260Y-50893817D01*
X73648487Y-51394228D01*
X73721634Y-51941013D01*
X73707228Y-52532398D01*
X73662632Y-52871135D01*
X73582973Y-53256877D01*
X73473500Y-53655514D01*
X73341810Y-54047676D01*
X73195500Y-54413993D01*
X73042167Y-54735093D01*
X72889407Y-54991608D01*
X72774630Y-55135334D01*
X72651190Y-55252074D01*
X72548035Y-55310027D01*
X72422685Y-55328409D01*
X72346782Y-55328880D01*
X72204132Y-55314054D01*
X71994740Y-55275955D01*
X71747536Y-55220474D01*
X71508058Y-55158157D01*
X70652589Y-54886938D01*
X69887942Y-54575830D01*
X69212822Y-54223930D01*
X68625931Y-53830336D01*
X68125974Y-53394144D01*
X67711654Y-52914453D01*
X67381675Y-52390360D01*
X67301774Y-52230366D01*
X67099061Y-51739041D01*
X66955417Y-51239631D01*
X66865998Y-50708023D01*
X66825959Y-50120108D01*
X66822713Y-49846006D01*
X66844039Y-49260870D01*
X66906578Y-48658523D01*
X67012398Y-48032925D01*
X67163568Y-47378039D01*
X67362156Y-46687826D01*
X67610230Y-45956247D01*
X67909859Y-45177265D01*
X68263112Y-44344841D01*
X68672057Y-43452936D01*
X69138762Y-42495513D01*
X69665296Y-41466533D01*
X69745802Y-41312804D01*
X69904259Y-41020385D01*
X70024094Y-40820203D01*
X70105276Y-40712310D01*
X70146398Y-40695164D01*
X70155348Y-40762221D01*
G37*
G36*
X79638805Y-36699812D02*
G01*
X79657176Y-36719795D01*
X79669128Y-36763922D01*
X79674196Y-36841046D01*
X79671919Y-36960021D01*
X79661833Y-37129701D01*
X79643476Y-37358941D01*
X79616384Y-37656594D01*
X79580095Y-38031514D01*
X79534146Y-38492555D01*
X79505783Y-38774211D01*
X79465601Y-39178974D01*
X79423601Y-39613414D01*
X79382666Y-40046915D01*
X79345679Y-40448864D01*
X79315523Y-40788647D01*
X79309983Y-40853304D01*
X79284768Y-41205670D01*
X79264731Y-41598072D01*
X79249968Y-42014129D01*
X79240577Y-42437462D01*
X79236653Y-42851689D01*
X79238292Y-43240430D01*
X79245591Y-43587304D01*
X79258647Y-43875930D01*
X79277555Y-44089929D01*
X79290482Y-44169871D01*
X79414324Y-44557486D01*
X79612389Y-44939107D01*
X79868240Y-45293257D01*
X80165443Y-45598460D01*
X80487559Y-45833240D01*
X80614827Y-45900346D01*
X80799312Y-45977586D01*
X80964305Y-46018427D01*
X81156822Y-46032078D01*
X81284227Y-46031474D01*
X81504454Y-46022890D01*
X81717554Y-46007238D01*
X81873324Y-45988485D01*
X82091222Y-45980253D01*
X82283491Y-46042041D01*
X82472261Y-46183632D01*
X82586965Y-46304012D01*
X82847939Y-46658698D01*
X83086252Y-47098157D01*
X83295710Y-47608332D01*
X83470119Y-48175169D01*
X83540678Y-48468294D01*
X83610114Y-48875370D01*
X83651947Y-49321011D01*
X83666146Y-49778196D01*
X83652681Y-50219906D01*
X83611521Y-50619120D01*
X83543473Y-50945918D01*
X83428081Y-51283086D01*
X83280640Y-51616594D01*
X83112157Y-51928161D01*
X82933640Y-52199507D01*
X82756096Y-52412354D01*
X82590532Y-52548420D01*
X82572440Y-52558485D01*
X82441499Y-52600726D01*
X82244492Y-52634702D01*
X82015204Y-52657647D01*
X81787420Y-52666795D01*
X81594924Y-52659380D01*
X81509227Y-52645533D01*
X81414461Y-52621701D01*
X81254055Y-52581343D01*
X81059355Y-52532345D01*
X81018236Y-52521995D01*
X80556206Y-52383428D01*
X80035644Y-52187283D01*
X79474427Y-51940618D01*
X79159227Y-51788132D01*
X78753927Y-51580907D01*
X78424771Y-51400093D01*
X78155078Y-51234822D01*
X77928169Y-51074227D01*
X77727365Y-50907441D01*
X77555151Y-50743034D01*
X77104586Y-50221206D01*
X76736257Y-49647275D01*
X76450065Y-49020520D01*
X76245910Y-48340222D01*
X76123694Y-47605662D01*
X76083318Y-46816118D01*
X76124682Y-45970871D01*
X76247689Y-45069202D01*
X76452238Y-44110390D01*
X76578202Y-43633777D01*
X76743006Y-43075435D01*
X76927929Y-42509851D01*
X77137167Y-41926865D01*
X77374917Y-41316318D01*
X77645377Y-40668049D01*
X77952742Y-39971899D01*
X78301210Y-39217707D01*
X78694977Y-38395313D01*
X78994305Y-37784763D01*
X79188668Y-37397225D01*
X79345107Y-37098122D01*
X79465585Y-36884009D01*
X79552062Y-36751439D01*
X79606501Y-36696965D01*
X79614477Y-36695118D01*
X79638805Y-36699812D01*
G37*
G36*
X104396755Y-51315393D02*
G01*
X104545655Y-51353005D01*
X104663514Y-51390945D01*
X104729283Y-51404886D01*
X104734227Y-51402800D01*
X104773025Y-51413238D01*
X104874236Y-51463409D01*
X105015085Y-51540571D01*
X105172795Y-51631981D01*
X105324590Y-51724898D01*
X105412864Y-51782476D01*
X105549192Y-51886812D01*
X105706656Y-52025713D01*
X105869630Y-52182826D01*
X106022488Y-52341799D01*
X106149602Y-52486279D01*
X106235346Y-52599911D01*
X106264093Y-52666343D01*
X106262377Y-52671471D01*
X106178147Y-52716337D01*
X106011905Y-52721301D01*
X105773335Y-52686435D01*
X105685126Y-52667299D01*
X105399910Y-52638582D01*
X105071434Y-52664322D01*
X104735616Y-52737774D01*
X104428374Y-52852194D01*
X104284227Y-52930368D01*
X104176505Y-52989089D01*
X104101842Y-53024199D01*
X104026732Y-53075964D01*
X103906124Y-53179299D01*
X103757110Y-53317262D01*
X103596784Y-53472911D01*
X103442239Y-53629306D01*
X103310569Y-53769503D01*
X103218868Y-53876560D01*
X103184228Y-53933537D01*
X103184227Y-53933682D01*
X103157384Y-53996822D01*
X103087814Y-54112865D01*
X103012455Y-54225034D01*
X102925024Y-54358184D01*
X102871866Y-54456081D01*
X102863663Y-54492923D01*
X102850272Y-54538368D01*
X102810435Y-54579321D01*
X102746838Y-54653260D01*
X102734227Y-54689406D01*
X102715402Y-54760259D01*
X102667896Y-54884685D01*
X102641595Y-54946289D01*
X102556252Y-55143066D01*
X102490555Y-55300612D01*
X102459227Y-55381903D01*
X102433887Y-55443938D01*
X102413557Y-55490713D01*
X102373560Y-55600283D01*
X102362927Y-55641009D01*
X102333272Y-55748906D01*
X102321664Y-55782692D01*
X102296380Y-55863967D01*
X102257197Y-56001736D01*
X102214311Y-56158643D01*
X102177917Y-56297330D01*
X102158208Y-56380440D01*
X102157608Y-56383876D01*
X102144830Y-56445716D01*
X102119765Y-56559221D01*
X102086557Y-56721312D01*
X102057914Y-56880646D01*
X102034234Y-57003972D01*
X102013671Y-57077692D01*
X102011932Y-57081040D01*
X101996124Y-57143380D01*
X101974639Y-57272420D01*
X101959773Y-57380930D01*
X101937405Y-57549905D01*
X101917487Y-57687097D01*
X101909057Y-57737420D01*
X101899710Y-57820933D01*
X101887318Y-57979746D01*
X101873671Y-58189080D01*
X101863462Y-58368571D01*
X101849372Y-58628457D01*
X101832979Y-58924153D01*
X101815598Y-59232638D01*
X101798545Y-59530889D01*
X101783136Y-59795882D01*
X101770684Y-60004596D01*
X101763088Y-60125392D01*
X101707101Y-60280813D01*
X101577772Y-60390552D01*
X101423323Y-60432274D01*
X101265974Y-60445780D01*
X101079715Y-60465482D01*
X101034227Y-60470881D01*
X100864644Y-60491461D01*
X100716215Y-60509230D01*
X100683327Y-60513104D01*
X100539529Y-60508980D01*
X100450943Y-60488354D01*
X100368365Y-60450258D01*
X100309948Y-60395190D01*
X100267457Y-60303671D01*
X100232660Y-60156223D01*
X100197320Y-59933365D01*
X100187735Y-59865730D01*
X100172974Y-59695914D01*
X100163639Y-59454175D01*
X100159526Y-59166520D01*
X100160433Y-58858954D01*
X100166156Y-58557484D01*
X100176492Y-58288117D01*
X100191238Y-58076859D01*
X100202412Y-57987032D01*
X100226855Y-57824199D01*
X100252405Y-57631019D01*
X100259309Y-57573662D01*
X100280597Y-57429701D01*
X100317617Y-57217222D01*
X100365029Y-56965653D01*
X100413854Y-56721986D01*
X100474395Y-56429118D01*
X100518158Y-56218338D01*
X100548665Y-56073626D01*
X100569434Y-55978958D01*
X100583988Y-55918313D01*
X100595845Y-55875667D01*
X100608527Y-55834999D01*
X100609227Y-55832791D01*
X100645004Y-55701620D01*
X100656760Y-55648923D01*
X100687873Y-55528666D01*
X100744313Y-55340811D01*
X100817285Y-55111942D01*
X100897990Y-54868643D01*
X100977631Y-54637498D01*
X101047411Y-54445093D01*
X101093282Y-54329832D01*
X101310902Y-53841841D01*
X101504862Y-53434798D01*
X101683312Y-53094660D01*
X101854399Y-52807381D01*
X102026271Y-52558917D01*
X102207076Y-52335222D01*
X102327317Y-52202724D01*
X102601250Y-51924194D01*
X102836976Y-51714293D01*
X103053860Y-51559723D01*
X103271267Y-51447188D01*
X103508563Y-51363390D01*
X103577553Y-51344232D01*
X103841463Y-51299193D01*
X104129142Y-51289712D01*
X104396755Y-51315393D01*
G37*
G36*
X73168949Y-64707348D02*
G01*
X73174561Y-64710758D01*
X73290900Y-64779907D01*
X73454884Y-64874359D01*
X73594443Y-64953153D01*
X73910656Y-65153363D01*
X74148140Y-65354608D01*
X74298855Y-65549502D01*
X74336957Y-65635360D01*
X74374970Y-65876772D01*
X74357021Y-66172092D01*
X74288815Y-66496349D01*
X74176060Y-66824575D01*
X74024461Y-67131801D01*
X73977502Y-67208081D01*
X73860898Y-67368783D01*
X73769443Y-67441336D01*
X73690422Y-67430328D01*
X73611117Y-67340346D01*
X73611067Y-67340269D01*
X73562899Y-67246343D01*
X73499091Y-67097418D01*
X73433048Y-66928174D01*
X73378175Y-66773290D01*
X73347876Y-66667444D01*
X73345831Y-66654093D01*
X73336201Y-66593325D01*
X73315096Y-66472397D01*
X73307242Y-66428649D01*
X73280695Y-66281559D01*
X73260488Y-66169321D01*
X73257579Y-66153107D01*
X73238591Y-66066408D01*
X73203076Y-65918224D01*
X73167972Y-65777367D01*
X73115320Y-65548980D01*
X73068568Y-65308881D01*
X73030880Y-65078708D01*
X73005420Y-64880096D01*
X72995351Y-64734685D01*
X73003837Y-64664110D01*
X73004997Y-64662736D01*
X73066888Y-64661774D01*
X73168949Y-64707348D01*
G37*
G36*
X97945515Y-42919755D02*
G01*
X98118951Y-42951152D01*
X98255889Y-43021166D01*
X98384864Y-43133415D01*
X98491573Y-43243775D01*
X98559719Y-43325775D01*
X98573601Y-43353381D01*
X98586906Y-43416403D01*
X98626152Y-43524317D01*
X98667323Y-43699357D01*
X98681906Y-43935029D01*
X98670555Y-44195555D01*
X98633929Y-44445161D01*
X98607319Y-44551408D01*
X98487220Y-44816665D01*
X98340061Y-45011389D01*
X98215619Y-45131005D01*
X98111380Y-45190900D01*
X97986550Y-45210749D01*
X97924362Y-45211884D01*
X97662734Y-45167136D01*
X97529121Y-45098757D01*
X97401485Y-44983064D01*
X97280353Y-44825122D01*
X97242898Y-44760592D01*
X97186291Y-44638699D01*
X97153890Y-44523635D01*
X97141366Y-44384182D01*
X97144391Y-44189127D01*
X97149179Y-44084665D01*
X97184468Y-43727118D01*
X97254292Y-43447772D01*
X97365154Y-43228644D01*
X97522500Y-43052687D01*
X97644250Y-42957077D01*
X97750930Y-42916401D01*
X97892073Y-42915091D01*
X97945515Y-42919755D01*
G37*
G36*
X90923163Y-58852218D02*
G01*
X90925146Y-59021773D01*
X90920564Y-59261091D01*
X90910314Y-59540014D01*
X90895295Y-59828387D01*
X90892993Y-59865730D01*
X90879649Y-60126256D01*
X90867104Y-60461014D01*
X90856068Y-60844038D01*
X90847251Y-61249364D01*
X90841365Y-61651025D01*
X90840020Y-61800629D01*
X90851139Y-62680896D01*
X90897223Y-63489023D01*
X90977657Y-64218279D01*
X91091826Y-64861930D01*
X91138021Y-65059284D01*
X91183537Y-65247351D01*
X91217427Y-65399479D01*
X91233635Y-65488156D01*
X91234227Y-65496395D01*
X91190271Y-65551032D01*
X91076333Y-65618930D01*
X90919305Y-65688494D01*
X90746077Y-65748129D01*
X90583542Y-65786243D01*
X90551882Y-65790589D01*
X90416989Y-65799124D01*
X90341190Y-65770790D01*
X90285001Y-65685560D01*
X90265892Y-65645529D01*
X90181795Y-65443208D01*
X90109608Y-65218130D01*
X90048377Y-64961398D01*
X89997147Y-64664116D01*
X89954964Y-64317386D01*
X89920875Y-63912312D01*
X89893925Y-63439997D01*
X89873161Y-62891545D01*
X89857627Y-62258058D01*
X89849387Y-61761529D01*
X89820425Y-59699537D01*
X89930847Y-59520518D01*
X90012496Y-59414040D01*
X90148990Y-59262925D01*
X90320096Y-59088722D01*
X90475248Y-58940794D01*
X90909227Y-58540087D01*
X90923163Y-58852218D01*
G37*
G36*
X67411734Y-60477536D02*
G01*
X67603100Y-60570258D01*
X67789230Y-60698590D01*
X67936427Y-60841093D01*
X67984227Y-60909765D01*
X68011447Y-60966084D01*
X68020734Y-61023976D01*
X68006596Y-61099848D01*
X67963538Y-61210104D01*
X67886068Y-61371153D01*
X67768693Y-61599400D01*
X67725755Y-61681748D01*
X67399651Y-62383256D01*
X67167818Y-63062186D01*
X67029387Y-63726808D01*
X66983485Y-64385393D01*
X67029244Y-65046212D01*
X67165792Y-65717536D01*
X67265607Y-66052909D01*
X67509587Y-66651217D01*
X67837375Y-67226707D01*
X68236686Y-67765415D01*
X68695234Y-68253374D01*
X69200735Y-68676621D01*
X69740902Y-69021189D01*
X69984227Y-69143278D01*
X70360772Y-69300638D01*
X70703356Y-69403635D01*
X71052939Y-69461251D01*
X71450480Y-69482466D01*
X71534227Y-69483122D01*
X71976122Y-69464722D01*
X72357613Y-69401776D01*
X72711579Y-69285849D01*
X73070897Y-69108503D01*
X73132629Y-69072958D01*
X73406158Y-68884352D01*
X73700658Y-68633585D01*
X73989391Y-68346557D01*
X74245622Y-68049167D01*
X74382062Y-67862602D01*
X74520288Y-67640618D01*
X74659465Y-67389241D01*
X74789769Y-67129537D01*
X74901377Y-66882570D01*
X74984467Y-66669407D01*
X75029215Y-66511113D01*
X75034227Y-66464005D01*
X75059215Y-66338104D01*
X75119442Y-66223229D01*
X75192801Y-66157527D01*
X75214404Y-66153107D01*
X75309889Y-66180027D01*
X75443276Y-66245684D01*
X75573437Y-66327424D01*
X75652356Y-66394338D01*
X75732719Y-66538968D01*
X75753462Y-66733102D01*
X75714915Y-66989289D01*
X75672128Y-67149240D01*
X75433944Y-67792863D01*
X75121581Y-68376308D01*
X74739947Y-68894705D01*
X74293950Y-69343183D01*
X73788500Y-69716871D01*
X73228503Y-70010900D01*
X72618868Y-70220400D01*
X72562600Y-70234728D01*
X72305622Y-70280835D01*
X71976914Y-70313507D01*
X71603975Y-70331711D01*
X71214304Y-70334413D01*
X70835401Y-70320580D01*
X70652166Y-70306546D01*
X70031714Y-70199409D01*
X69430120Y-69998627D01*
X68853780Y-69709973D01*
X68309085Y-69339219D01*
X67802429Y-68892137D01*
X67340207Y-68374498D01*
X66928810Y-67792075D01*
X66574634Y-67150638D01*
X66284070Y-66455961D01*
X66237449Y-66321026D01*
X66016556Y-65517509D01*
X65891239Y-64718209D01*
X65861232Y-63928577D01*
X65926269Y-63154062D01*
X66086082Y-62400116D01*
X66340405Y-61672187D01*
X66479991Y-61366007D01*
X66648646Y-61035376D01*
X66791818Y-60788914D01*
X66917912Y-60616519D01*
X67035330Y-60508090D01*
X67152475Y-60453528D01*
X67248827Y-60441864D01*
X67411734Y-60477536D01*
G37*
G36*
X69214339Y-76014144D02*
G01*
X69343608Y-76119919D01*
X69446988Y-76261774D01*
X69479085Y-76336434D01*
X69542842Y-76606621D01*
X69552168Y-76837499D01*
X69509082Y-77014678D01*
X69415606Y-77123764D01*
X69365632Y-77144823D01*
X69238215Y-77169493D01*
X69138948Y-77151199D01*
X69023422Y-77087749D01*
X68892658Y-76975796D01*
X68821164Y-76828737D01*
X68803531Y-76627400D01*
X68827707Y-76393747D01*
X68870072Y-76181432D01*
X68923676Y-76052083D01*
X68999266Y-75988471D01*
X69089984Y-75973203D01*
X69214339Y-76014144D01*
G37*
G36*
X100087308Y-74716212D02*
G01*
X100209476Y-74784723D01*
X100339864Y-74914279D01*
X100490043Y-75127531D01*
X100586662Y-75377537D01*
X100637027Y-75687075D01*
X100647175Y-75872239D01*
X100642111Y-76185102D01*
X100602826Y-76425333D01*
X100523379Y-76616407D01*
X100424338Y-76752595D01*
X100195295Y-76953262D01*
X99946846Y-77059282D01*
X99686730Y-77068768D01*
X99445136Y-76991287D01*
X99236719Y-76833397D01*
X99087681Y-76594963D01*
X98998068Y-76276099D01*
X98967930Y-75876921D01*
X98967930Y-75872239D01*
X99001725Y-75514745D01*
X99097730Y-75209067D01*
X99248520Y-74964369D01*
X99446673Y-74789816D01*
X99684765Y-74694571D01*
X99930012Y-74684561D01*
X100087308Y-74716212D01*
G37*
G36*
X87210469Y-62433620D02*
G01*
X87226881Y-62567418D01*
X87234889Y-62748199D01*
X87235217Y-62786931D01*
X87243680Y-63010932D01*
X87266309Y-63310692D01*
X87300332Y-63663219D01*
X87342980Y-64045522D01*
X87391483Y-64434610D01*
X87443072Y-64807490D01*
X87494976Y-65141172D01*
X87544426Y-65412664D01*
X87560768Y-65489300D01*
X87571417Y-65557230D01*
X87555230Y-65588562D01*
X87497602Y-65580572D01*
X87383925Y-65530540D01*
X87199595Y-65435745D01*
X87159227Y-65414478D01*
X86960118Y-65288248D01*
X86728736Y-65108541D01*
X86486309Y-64895456D01*
X86254068Y-64669092D01*
X86053240Y-64449549D01*
X85905056Y-64256926D01*
X85862458Y-64186730D01*
X85809246Y-64062080D01*
X85799822Y-63947283D01*
X85841400Y-63825271D01*
X85941195Y-63678974D01*
X86106419Y-63491324D01*
X86196239Y-63396923D01*
X86392358Y-63189707D01*
X86602792Y-62961309D01*
X86791979Y-62750507D01*
X86851147Y-62682799D01*
X86985232Y-62536151D01*
X87097903Y-62428403D01*
X87172088Y-62375206D01*
X87188647Y-62373398D01*
X87210469Y-62433620D01*
G37*
G36*
X68748507Y-61538302D02*
G01*
X68767174Y-61607233D01*
X68783197Y-61769907D01*
X68796242Y-62019898D01*
X68805972Y-62350776D01*
X68812053Y-62756117D01*
X68812064Y-62757371D01*
X68816677Y-63103798D01*
X68823549Y-63429479D01*
X68832109Y-63716697D01*
X68841786Y-63947736D01*
X68852008Y-64104879D01*
X68856985Y-64149162D01*
X68875507Y-64274697D01*
X68904928Y-64477233D01*
X68942046Y-64734574D01*
X68983654Y-65024526D01*
X69012492Y-65226282D01*
X69063389Y-65581828D01*
X69103201Y-65854684D01*
X69134862Y-66061370D01*
X69161305Y-66218404D01*
X69185465Y-66342304D01*
X69210275Y-66449591D01*
X69238669Y-66556781D01*
X69266087Y-66654093D01*
X69312142Y-66819114D01*
X69347490Y-66951681D01*
X69360396Y-67004783D01*
X69382231Y-67082697D01*
X69428013Y-67230906D01*
X69490003Y-67424668D01*
X69531180Y-67550749D01*
X69594929Y-67751592D01*
X69641982Y-67913754D01*
X69666433Y-68016013D01*
X69667446Y-68040268D01*
X69620171Y-68023679D01*
X69512457Y-67962671D01*
X69366149Y-67869766D01*
X69342126Y-67853788D01*
X69001042Y-67583019D01*
X68704548Y-67252125D01*
X68438476Y-66844343D01*
X68349291Y-66679142D01*
X68253778Y-66491266D01*
X68180501Y-66341734D01*
X68138423Y-66249174D01*
X68132361Y-66228255D01*
X68122504Y-66187305D01*
X68080353Y-66082016D01*
X68038614Y-65987411D01*
X67892902Y-65571574D01*
X67798176Y-65092865D01*
X67754304Y-64574531D01*
X67761157Y-64039820D01*
X67818606Y-63511980D01*
X67926520Y-63014256D01*
X68057356Y-62633367D01*
X68107563Y-62506131D01*
X68136332Y-62420118D01*
X68138640Y-62408474D01*
X68162013Y-62348654D01*
X68220719Y-62225509D01*
X68302791Y-62063991D01*
X68315911Y-62038885D01*
X68466423Y-61773458D01*
X68590022Y-61602193D01*
X68686151Y-61525734D01*
X68748507Y-61538302D01*
G37*
G36*
X93098592Y-56425021D02*
G01*
X93224490Y-56540362D01*
X93383677Y-56717756D01*
X93567422Y-56945062D01*
X93766996Y-57210138D01*
X93973671Y-57500842D01*
X94178716Y-57805031D01*
X94373403Y-58110565D01*
X94549003Y-58405300D01*
X94696786Y-58677096D01*
X94767425Y-58821840D01*
X95048775Y-59500219D01*
X95255477Y-60165261D01*
X95393065Y-60842797D01*
X95467074Y-61558660D01*
X95484227Y-62167329D01*
X95450207Y-62913766D01*
X95344498Y-63603273D01*
X95161629Y-64254008D01*
X94896125Y-64884124D01*
X94542514Y-65511777D01*
X94418758Y-65701821D01*
X94225082Y-65959792D01*
X93971600Y-66252469D01*
X93680681Y-66557461D01*
X93374693Y-66852374D01*
X93076003Y-67114816D01*
X92806982Y-67322394D01*
X92784211Y-67338153D01*
X92171523Y-67707221D01*
X91521425Y-68006115D01*
X90849291Y-68230727D01*
X90170496Y-68376952D01*
X89500414Y-68440681D01*
X88854419Y-68417807D01*
X88776590Y-68408713D01*
X88077025Y-68270146D01*
X87392332Y-68034412D01*
X86728888Y-67704181D01*
X86103636Y-67290066D01*
X85816372Y-67060379D01*
X85528295Y-66804557D01*
X85251565Y-66535843D01*
X84998344Y-66267478D01*
X84780791Y-66012707D01*
X84611067Y-65784770D01*
X84501332Y-65596913D01*
X84469782Y-65510786D01*
X84468471Y-65352357D01*
X84516624Y-65150781D01*
X84601923Y-64941693D01*
X84712048Y-64760732D01*
X84741552Y-64724590D01*
X84895175Y-64596987D01*
X85052004Y-64548005D01*
X85191760Y-64581072D01*
X85255748Y-64637623D01*
X85488401Y-64923034D01*
X85677806Y-65145562D01*
X85840183Y-65322882D01*
X85991753Y-65472665D01*
X86148738Y-65612585D01*
X86157275Y-65619856D01*
X86671757Y-66003567D01*
X87222824Y-66307025D01*
X87828169Y-66539090D01*
X88195595Y-66640711D01*
X88511032Y-66695053D01*
X88891962Y-66725834D01*
X89306782Y-66733464D01*
X89723889Y-66718356D01*
X90111680Y-66680920D01*
X90438552Y-66621568D01*
X90479613Y-66611006D01*
X91119561Y-66392253D01*
X91694775Y-66098009D01*
X92208214Y-65726531D01*
X92568158Y-65381565D01*
X92834514Y-65074319D01*
X93055221Y-64770222D01*
X93236936Y-64452995D01*
X93386316Y-64106358D01*
X93510018Y-63714031D01*
X93614698Y-63259732D01*
X93707015Y-62727182D01*
X93737151Y-62522707D01*
X93780325Y-62207560D01*
X93808222Y-61964443D01*
X93821939Y-61766540D01*
X93822573Y-61587036D01*
X93811222Y-61399117D01*
X93791362Y-61197821D01*
X93755510Y-60924561D01*
X93707876Y-60639796D01*
X93656302Y-60388127D01*
X93631599Y-60289051D01*
X93511869Y-59932958D01*
X93337273Y-59527924D01*
X93120227Y-59099132D01*
X92873149Y-58671763D01*
X92706503Y-58412870D01*
X92494166Y-58088395D01*
X92320176Y-57804326D01*
X92190141Y-57570699D01*
X92109669Y-57397549D01*
X92084227Y-57299492D01*
X92119808Y-57222482D01*
X92214571Y-57099415D01*
X92350540Y-56947979D01*
X92509743Y-56785860D01*
X92674205Y-56630745D01*
X92825953Y-56500319D01*
X92947013Y-56412270D01*
X93014709Y-56383876D01*
X93098592Y-56425021D01*
G37*
G36*
X64241955Y-51286271D02*
G01*
X64386843Y-51377329D01*
X64483889Y-51551921D01*
X64530380Y-51806446D01*
X64534227Y-51922611D01*
X64525548Y-52115460D01*
X64494428Y-52239964D01*
X64434227Y-52325888D01*
X64288875Y-52413307D01*
X64133764Y-52404422D01*
X63983533Y-52300096D01*
X63982709Y-52299220D01*
X63897423Y-52157572D01*
X63849545Y-51972561D01*
X63837349Y-51769518D01*
X63859112Y-51573774D01*
X63913109Y-51410659D01*
X63997615Y-51305505D01*
X64051937Y-51282349D01*
X64241955Y-51286271D01*
G37*
G36*
X94626374Y-42682510D02*
G01*
X94688301Y-42720651D01*
X94843125Y-42856581D01*
X94945182Y-43030103D01*
X95004262Y-43263086D01*
X95025307Y-43473586D01*
X95017116Y-43771979D01*
X94960235Y-44028767D01*
X94863207Y-44233950D01*
X94734577Y-44377527D01*
X94582885Y-44449497D01*
X94416675Y-44439858D01*
X94269017Y-44358973D01*
X94113585Y-44179192D01*
X94006654Y-43939350D01*
X93949725Y-43665029D01*
X93944300Y-43381813D01*
X93991881Y-43115284D01*
X94093971Y-42891026D01*
X94177027Y-42792013D01*
X94336803Y-42670152D01*
X94478136Y-42634830D01*
X94626374Y-42682510D01*
G37*
G36*
X91957341Y-58729280D02*
G01*
X92082911Y-58860614D01*
X92221854Y-59040425D01*
X92363118Y-59255308D01*
X92495651Y-59491859D01*
X92532102Y-59565138D01*
X92662876Y-59847429D01*
X92759703Y-60079816D01*
X92818020Y-60250275D01*
X92833259Y-60346783D01*
X92831608Y-60353966D01*
X92844168Y-60404370D01*
X92879970Y-60505796D01*
X92927156Y-60651282D01*
X92963768Y-60821065D01*
X92995592Y-61045231D01*
X93012176Y-61193343D01*
X93035231Y-61425585D01*
X93049540Y-61621668D01*
X93054431Y-61803746D01*
X93049231Y-61993975D01*
X93033267Y-62214507D01*
X93005866Y-62487498D01*
X92966355Y-62835101D01*
X92960897Y-62881780D01*
X92884218Y-63258480D01*
X92743906Y-63673450D01*
X92552090Y-64099564D01*
X92320900Y-64509694D01*
X92077341Y-64857902D01*
X91945455Y-65025888D01*
X91892560Y-64825493D01*
X91810586Y-64457344D01*
X91740400Y-64031279D01*
X91688127Y-63589418D01*
X91663052Y-63247387D01*
X91637943Y-62725407D01*
X91618581Y-62286980D01*
X91604945Y-61915626D01*
X91597010Y-61594867D01*
X91594753Y-61308225D01*
X91598151Y-61039221D01*
X91607180Y-60771378D01*
X91621818Y-60488215D01*
X91642040Y-60173256D01*
X91658369Y-59940878D01*
X91684475Y-59599174D01*
X91711125Y-59290176D01*
X91736845Y-59028101D01*
X91760162Y-58827169D01*
X91779602Y-58701598D01*
X91790525Y-58665660D01*
X91856195Y-58659827D01*
X91957341Y-58729280D01*
G37*
G36*
X106431734Y-73101235D02*
G01*
X106536219Y-73142896D01*
X106693601Y-73276854D01*
X106813915Y-73483342D01*
X106891313Y-73739703D01*
X106919949Y-74023279D01*
X106893975Y-74311412D01*
X106866738Y-74423715D01*
X106745892Y-74705855D01*
X106576411Y-74910884D01*
X106368076Y-75033223D01*
X106130664Y-75067288D01*
X105873955Y-75007498D01*
X105856748Y-75000192D01*
X105643771Y-74856557D01*
X105486446Y-74648697D01*
X105385945Y-74396409D01*
X105343440Y-74119489D01*
X105360102Y-73837735D01*
X105437105Y-73570943D01*
X105575619Y-73338911D01*
X105748967Y-73179438D01*
X105952564Y-73093400D01*
X106194668Y-73066659D01*
X106431734Y-73101235D01*
G37*
G36*
X71367185Y-63429537D02*
G01*
X71541269Y-63512861D01*
X71720311Y-63629298D01*
X71847048Y-63736252D01*
X71946536Y-63842483D01*
X72029235Y-63956523D01*
X72098346Y-64090518D01*
X72157073Y-64256612D01*
X72208619Y-64466950D01*
X72256185Y-64733677D01*
X72302975Y-65068937D01*
X72352191Y-65484876D01*
X72383328Y-65769906D01*
X72440282Y-66121519D01*
X72543946Y-66543827D01*
X72695632Y-67041366D01*
X72896650Y-67618678D01*
X72989367Y-67868195D01*
X73050418Y-68055908D01*
X73054867Y-68183800D01*
X72991680Y-68280089D01*
X72849826Y-68372994D01*
X72777063Y-68411206D01*
X72609271Y-68485344D01*
X72494626Y-68497860D01*
X72405441Y-68446120D01*
X72343097Y-68369927D01*
X72270796Y-68245407D01*
X72181801Y-68061111D01*
X72091244Y-67852251D01*
X72014257Y-67654039D01*
X71965972Y-67501687D01*
X71961526Y-67482001D01*
X71935273Y-67375732D01*
X71891550Y-67219106D01*
X71865190Y-67130030D01*
X71816855Y-66958788D01*
X71779899Y-66807614D01*
X71769521Y-66754290D01*
X71743113Y-66626133D01*
X71722148Y-66553896D01*
X71605447Y-66174782D01*
X71497111Y-65700913D01*
X71398090Y-65137453D01*
X71309338Y-64489568D01*
X71260013Y-64048965D01*
X71237932Y-63851414D01*
X71214049Y-63660960D01*
X71203473Y-63585552D01*
X71196581Y-63448806D01*
X71228196Y-63397865D01*
X71231438Y-63397683D01*
X71367185Y-63429537D01*
G37*
G36*
X69868143Y-62241588D02*
G01*
X70041420Y-62346912D01*
X70110864Y-62403871D01*
X70217652Y-62503265D01*
X70300319Y-62599984D01*
X70362825Y-62708985D01*
X70409132Y-62845229D01*
X70443200Y-63023674D01*
X70468992Y-63259279D01*
X70490468Y-63567004D01*
X70508805Y-63906631D01*
X70537089Y-64332041D01*
X70580277Y-64761451D01*
X70641521Y-65218783D01*
X70723974Y-65727963D01*
X70814758Y-66228255D01*
X70853462Y-66397754D01*
X70916394Y-66632901D01*
X70997265Y-66913684D01*
X71089786Y-67220096D01*
X71187666Y-67532124D01*
X71284618Y-67829760D01*
X71374352Y-68092993D01*
X71450579Y-68301813D01*
X71507010Y-68436211D01*
X71511556Y-68445241D01*
X71550836Y-68560739D01*
X71549921Y-68639222D01*
X71483749Y-68685620D01*
X71351879Y-68702955D01*
X71184455Y-68690753D01*
X71011622Y-68648541D01*
X71009227Y-68647706D01*
X70867476Y-68583033D01*
X70753978Y-68489438D01*
X70656686Y-68349606D01*
X70563553Y-68146221D01*
X70462530Y-67861968D01*
X70462520Y-67861936D01*
X70221406Y-67060580D01*
X70003163Y-66195616D01*
X69815763Y-65302517D01*
X69667181Y-64416755D01*
X69633530Y-64174211D01*
X69597775Y-63854398D01*
X69571985Y-63522991D01*
X69556295Y-63196835D01*
X69550840Y-62892778D01*
X69555756Y-62627665D01*
X69571176Y-62418343D01*
X69597236Y-62281658D01*
X69618066Y-62241491D01*
X69721309Y-62204565D01*
X69868143Y-62241588D01*
G37*
G36*
X104846259Y-47267875D02*
G01*
X105052769Y-47395904D01*
X105205137Y-47591921D01*
X105214877Y-47611554D01*
X105258882Y-47773747D01*
X105277744Y-47997460D01*
X105272829Y-48247600D01*
X105245504Y-48489075D01*
X105197137Y-48686792D01*
X105170575Y-48748921D01*
X105016902Y-48946117D01*
X104813557Y-49063632D01*
X104578193Y-49095876D01*
X104328460Y-49037258D01*
X104300033Y-49024634D01*
X104085625Y-48874479D01*
X103926822Y-48663163D01*
X103825769Y-48411441D01*
X103784613Y-48140068D01*
X103805501Y-47869800D01*
X103890578Y-47621393D01*
X104041990Y-47415602D01*
X104126506Y-47346436D01*
X104360664Y-47237669D01*
X104608069Y-47213306D01*
X104846259Y-47267875D01*
G37*
G36*
X102700069Y-58788610D02*
G01*
X102719497Y-58672711D01*
X102741081Y-58498369D01*
X102756994Y-58337722D01*
X102775157Y-58146394D01*
X102793632Y-57978783D01*
X102806060Y-57886834D01*
X102822841Y-57768189D01*
X102844251Y-57594646D01*
X102859177Y-57462754D01*
X102878907Y-57299508D01*
X102897063Y-57180364D01*
X102907549Y-57137112D01*
X102923250Y-57075330D01*
X102944359Y-56950508D01*
X102953663Y-56884862D01*
X102983861Y-56702622D01*
X103021218Y-56531245D01*
X103030540Y-56496598D01*
X103057079Y-56387699D01*
X103060755Y-56334751D01*
X103059045Y-56333777D01*
X103060958Y-56290738D01*
X103093243Y-56175056D01*
X103148555Y-56006887D01*
X103219547Y-55806384D01*
X103298876Y-55593702D01*
X103379194Y-55388995D01*
X103453156Y-55212418D01*
X103513417Y-55084125D01*
X103516909Y-55077517D01*
X103797162Y-54619255D01*
X104108465Y-54230399D01*
X104442656Y-53918441D01*
X104791572Y-53690878D01*
X105147050Y-53555205D01*
X105184227Y-53546638D01*
X105518572Y-53506001D01*
X105824970Y-53529116D01*
X105947422Y-53561083D01*
X106076360Y-53603589D01*
X106162063Y-53630128D01*
X106172422Y-53632854D01*
X106341651Y-53697158D01*
X106540982Y-53823102D01*
X106779267Y-54017238D01*
X107065357Y-54286120D01*
X107096727Y-54317163D01*
X107254208Y-54478675D01*
X107380892Y-54618218D01*
X107462027Y-54718921D01*
X107484227Y-54760349D01*
X107518998Y-54839089D01*
X107555953Y-54878195D01*
X107628155Y-54967339D01*
X107728575Y-55130807D01*
X107848077Y-55349980D01*
X107977523Y-55606239D01*
X108107777Y-55880963D01*
X108229703Y-56155534D01*
X108334163Y-56411331D01*
X108405434Y-56609320D01*
X108458278Y-56767263D01*
X108502399Y-56892987D01*
X108518357Y-56934961D01*
X108553513Y-57032223D01*
X108561484Y-57060207D01*
X108579679Y-57127366D01*
X108618761Y-57267370D01*
X108672147Y-57456722D01*
X108708873Y-57586243D01*
X108769599Y-57805034D01*
X108821042Y-57999709D01*
X108855843Y-58141970D01*
X108865193Y-58187426D01*
X108892547Y-58332950D01*
X108919929Y-58462969D01*
X108945250Y-58576504D01*
X108958850Y-58638314D01*
X108969270Y-58698596D01*
X108989607Y-58822491D01*
X109001054Y-58893431D01*
X109028138Y-59062119D01*
X109051608Y-59208269D01*
X109057367Y-59244121D01*
X109101273Y-59555601D01*
X109130590Y-59865025D01*
X109147372Y-60203731D01*
X109153669Y-60603055D01*
X109153845Y-60717406D01*
X109146643Y-61230913D01*
X109126771Y-61737882D01*
X109095751Y-62214677D01*
X109055105Y-62637666D01*
X109008782Y-62969199D01*
X108982970Y-63133709D01*
X108963933Y-63278639D01*
X108962228Y-63294840D01*
X108943001Y-63435517D01*
X108914388Y-63596045D01*
X108913977Y-63598077D01*
X108885890Y-63738152D01*
X108865420Y-63842908D01*
X108864353Y-63848570D01*
X108845018Y-63947359D01*
X108816905Y-64086595D01*
X108814353Y-64099063D01*
X108785885Y-64239116D01*
X108764981Y-64343872D01*
X108763876Y-64349556D01*
X108733826Y-64467741D01*
X108723575Y-64499852D01*
X108697317Y-64581921D01*
X108651355Y-64730455D01*
X108594797Y-64915969D01*
X108584277Y-64950740D01*
X108397593Y-65472451D01*
X108171900Y-65939912D01*
X107913911Y-66344121D01*
X107630336Y-66676076D01*
X107327885Y-66926776D01*
X107013271Y-67087219D01*
X106984227Y-67097041D01*
X106852709Y-67130723D01*
X106692822Y-67159951D01*
X106537533Y-67180257D01*
X106419810Y-67187174D01*
X106374380Y-67179672D01*
X106319882Y-67163364D01*
X106205803Y-67141712D01*
X106184227Y-67138258D01*
X105906400Y-67080739D01*
X105725785Y-67010154D01*
X105691394Y-66986979D01*
X105547809Y-66890380D01*
X105364651Y-66788579D01*
X105309227Y-66761386D01*
X105238987Y-66709860D01*
X105121484Y-66605229D01*
X104973014Y-66463980D01*
X104809877Y-66302599D01*
X104648371Y-66137574D01*
X104504793Y-65985391D01*
X104395442Y-65862537D01*
X104336617Y-65785500D01*
X104330907Y-65771744D01*
X104301099Y-65709975D01*
X104227754Y-65597587D01*
X104158590Y-65501825D01*
X104090685Y-65398346D01*
X103994962Y-65235703D01*
X103881424Y-65032832D01*
X103760070Y-64808669D01*
X103640905Y-64582152D01*
X103533928Y-64372215D01*
X103449141Y-64197796D01*
X103396547Y-64077832D01*
X103384227Y-64035695D01*
X103367043Y-63972153D01*
X103326544Y-63864356D01*
X103280372Y-63740880D01*
X103255395Y-63656788D01*
X103223982Y-63553053D01*
X103205526Y-63506492D01*
X103166029Y-63396732D01*
X103155526Y-63356196D01*
X103123994Y-63252452D01*
X103105526Y-63205900D01*
X103067483Y-63106911D01*
X103057016Y-63072041D01*
X103041366Y-63006193D01*
X103008527Y-62867407D01*
X102964301Y-62680259D01*
X102914492Y-62469323D01*
X102864905Y-62259175D01*
X102821344Y-62074390D01*
X102802633Y-61994921D01*
X102779263Y-61865484D01*
X102757018Y-61695812D01*
X102751692Y-61644231D01*
X102730515Y-61456455D01*
X102701431Y-61238676D01*
X102687194Y-61143245D01*
X102675072Y-61010467D01*
X102666248Y-60802130D01*
X102660614Y-60537966D01*
X102658063Y-60237705D01*
X102658487Y-59921078D01*
X102661778Y-59607815D01*
X102667828Y-59317649D01*
X102676529Y-59070309D01*
X102681775Y-58984095D01*
X103393103Y-58984095D01*
X103399727Y-59406011D01*
X103408750Y-59756655D01*
X103419086Y-60084582D01*
X103430056Y-60372980D01*
X103440981Y-60605034D01*
X103451182Y-60763933D01*
X103456736Y-60817604D01*
X103477584Y-60966624D01*
X103505254Y-61173113D01*
X103534135Y-61395119D01*
X103537157Y-61418787D01*
X103621111Y-61979597D01*
X103727652Y-62535217D01*
X103850962Y-63060231D01*
X103985222Y-63529221D01*
X104087907Y-63824489D01*
X104141918Y-63972475D01*
X104176868Y-64081633D01*
X104184227Y-64116255D01*
X104207344Y-64187372D01*
X104269794Y-64325687D01*
X104361227Y-64511446D01*
X104471290Y-64724890D01*
X104589631Y-64946264D01*
X104705900Y-65155812D01*
X104809745Y-65333778D01*
X104881252Y-65446550D01*
X105214247Y-65876585D01*
X105563623Y-66212004D01*
X105927395Y-66451550D01*
X106303574Y-66593966D01*
X106690173Y-66637996D01*
X106760697Y-66635377D01*
X106985887Y-66603928D01*
X107192792Y-66544606D01*
X107260697Y-66514587D01*
X107505436Y-66344548D01*
X107750565Y-66095338D01*
X107980654Y-65786721D01*
X108180276Y-65438463D01*
X108285974Y-65201233D01*
X108546579Y-64425067D01*
X108741082Y-63590339D01*
X108866408Y-62716276D01*
X108919484Y-61822105D01*
X108914843Y-61268491D01*
X108903586Y-60972636D01*
X108891439Y-60699525D01*
X108879468Y-60470189D01*
X108868741Y-60305656D01*
X108862696Y-60241470D01*
X108844155Y-60087050D01*
X108822264Y-59891319D01*
X108811547Y-59790582D01*
X108790165Y-59596632D01*
X108767992Y-59412986D01*
X108758264Y-59339694D01*
X108732652Y-59157072D01*
X108709121Y-58989004D01*
X108654731Y-58641338D01*
X108603862Y-58387821D01*
X108570909Y-58233324D01*
X108552878Y-58137327D01*
X108529242Y-58028685D01*
X108486976Y-57858227D01*
X108434697Y-57660545D01*
X108428079Y-57636341D01*
X108195098Y-56880645D01*
X107932556Y-56200174D01*
X107642877Y-55598996D01*
X107328486Y-55081178D01*
X106991807Y-54650789D01*
X106635266Y-54311897D01*
X106320158Y-54099787D01*
X106149108Y-54016453D01*
X105990785Y-53972286D01*
X105797888Y-53956069D01*
X105709227Y-53954909D01*
X105332466Y-53999001D01*
X104986994Y-54134088D01*
X104670965Y-54361639D01*
X104382534Y-54683123D01*
X104119853Y-55100009D01*
X104018457Y-55300343D01*
X103835821Y-55723194D01*
X103687542Y-56158892D01*
X103571667Y-56620410D01*
X103486240Y-57120718D01*
X103429307Y-57672788D01*
X103398913Y-58289590D01*
X103393103Y-58984095D01*
X102681775Y-58984095D01*
X102687773Y-58885526D01*
X102700069Y-58788610D01*
G37*
G36*
X96327530Y-75844132D02*
G01*
X96413431Y-75878749D01*
X96556620Y-75981407D01*
X96641123Y-76132492D01*
X96673688Y-76348575D01*
X96671339Y-76512046D01*
X96648648Y-76723060D01*
X96603776Y-76859399D01*
X96556790Y-76922201D01*
X96389596Y-77027829D01*
X96205168Y-77048687D01*
X96085212Y-77011467D01*
X95938306Y-76882917D01*
X95855674Y-76680842D01*
X95834964Y-76464159D01*
X95854383Y-76216040D01*
X95920191Y-76042209D01*
X96040972Y-75924197D01*
X96101259Y-75891006D01*
X96229035Y-75841280D01*
X96327530Y-75844132D01*
G37*
G36*
X89060765Y-61886592D02*
G01*
X89070595Y-62703444D01*
X89102781Y-63436408D01*
X89158597Y-64099542D01*
X89239316Y-64706903D01*
X89346209Y-65272548D01*
X89381147Y-65425976D01*
X89429613Y-65659390D01*
X89444013Y-65809841D01*
X89425352Y-65888204D01*
X89423978Y-65889937D01*
X89329021Y-65936367D01*
X89170409Y-65947530D01*
X88977875Y-65923981D01*
X88813773Y-65878529D01*
X88641478Y-65800448D01*
X88517987Y-65695570D01*
X88424745Y-65540626D01*
X88343193Y-65312348D01*
X88332024Y-65274496D01*
X88237398Y-64926411D01*
X88164028Y-64599209D01*
X88106163Y-64260509D01*
X88058051Y-63877928D01*
X88025388Y-63547978D01*
X87984115Y-63015355D01*
X87966709Y-62567510D01*
X87974504Y-62191600D01*
X88008837Y-61874781D01*
X88071043Y-61604212D01*
X88162458Y-61367048D01*
X88272884Y-61168294D01*
X88412675Y-60983304D01*
X88591764Y-60792230D01*
X88778787Y-60625828D01*
X88935765Y-60518326D01*
X89062304Y-60450650D01*
X89060765Y-61886592D01*
G37*
%TD*%
D10*
%TO.C,SW1*%
X99160552Y-44069315D03*
X101618008Y-45790044D03*
%TD*%
M02*
