%TF.GenerationSoftware,KiCad,Pcbnew,6.0.2+dfsg-1*%
%TF.CreationDate,2022-10-12T23:29:13+02:00*%
%TF.ProjectId,project_satan,70726f6a-6563-4745-9f73-6174616e2e6b,rev?*%
%TF.SameCoordinates,Original*%
%TF.FileFunction,Profile,NP*%
%FSLAX46Y46*%
G04 Gerber Fmt 4.6, Leading zero omitted, Abs format (unit mm)*
G04 Created by KiCad (PCBNEW 6.0.2+dfsg-1) date 2022-10-12 23:29:13*
%MOMM*%
%LPD*%
G01*
G04 APERTURE LIST*
%TA.AperFunction,Profile*%
%ADD10C,0.100000*%
%TD*%
G04 APERTURE END LIST*
D10*
%TO.C,REF\u002A\u002A*%
X61859912Y-53352909D02*
X61836837Y-53188132D01*
X64896561Y-69823698D02*
X64862469Y-69685059D01*
X80431159Y-36402413D02*
X80411498Y-36529195D01*
X70995850Y-40162387D02*
X70974403Y-40298576D01*
X63861866Y-65304951D02*
X63822381Y-65104867D01*
X109662278Y-65333319D02*
X109635590Y-65438130D01*
X94960895Y-40051205D02*
X95195446Y-39981002D01*
X90601362Y-41289158D02*
X90992444Y-41182082D01*
X71365276Y-79419856D02*
X70750912Y-79417024D01*
X109185719Y-56054244D02*
X109196865Y-56070759D01*
X109164298Y-66863637D02*
X109098927Y-67040100D01*
X74676675Y-45874811D02*
X74878596Y-45809132D01*
X70445714Y-44227725D02*
X70426548Y-44399834D01*
X109424811Y-66104822D02*
X109334208Y-66375223D01*
X85462598Y-79319855D02*
X84933763Y-79323839D01*
X83204048Y-79367269D02*
X83194981Y-79371863D01*
X81109094Y-79410025D02*
X80544173Y-79413712D01*
X62825877Y-59675013D02*
X62793516Y-59479663D01*
X72706488Y-79424076D02*
X72019352Y-79422206D01*
X106458761Y-50221746D02*
X106494849Y-50472989D01*
X79977355Y-43587222D02*
X80014588Y-43781211D01*
X90436648Y-79304611D02*
X89376804Y-79306273D01*
X107796768Y-53176077D02*
X107833049Y-53242377D01*
X94534227Y-40174906D02*
X94609050Y-40154388D01*
X70804742Y-41460475D02*
X70789465Y-41523999D01*
X62909227Y-49195749D02*
X62994450Y-49174556D01*
X65017169Y-70334190D02*
X64978471Y-70177893D01*
X83378938Y-79351781D02*
X83262847Y-79359186D01*
X105806550Y-76719378D02*
X105644965Y-76776882D01*
X98437087Y-41480046D02*
X98520241Y-41540170D01*
X63333442Y-62537134D02*
X63284996Y-62267620D01*
X104764683Y-77083005D02*
X104375385Y-77217183D01*
X63418506Y-63006255D02*
X63383735Y-62820449D01*
X107958013Y-53456081D02*
X108046470Y-53602452D01*
X66166177Y-48210718D02*
X66236409Y-48125339D01*
X66559298Y-46988390D02*
X66664432Y-46645138D01*
X88347516Y-41917815D02*
X88564621Y-41857577D01*
X80395046Y-36647439D02*
X80379641Y-36806570D01*
X75864000Y-43276976D02*
X75909047Y-43107742D01*
X98293285Y-41379795D02*
X98437087Y-41480046D01*
X109883298Y-58607975D02*
X109903167Y-58713462D01*
X108165330Y-53821478D02*
X108305334Y-54093832D01*
X64103154Y-66403600D02*
X64037348Y-66120451D01*
X65229102Y-71175419D02*
X65186411Y-71009614D01*
X78595366Y-79422070D02*
X77883259Y-79423946D01*
X71020500Y-40063429D02*
X71013313Y-40095200D01*
X64453913Y-67972153D02*
X64365413Y-67582220D01*
X62009271Y-54404980D02*
X61986692Y-54251586D01*
X80363116Y-37004867D02*
X80359008Y-37058857D01*
X94284840Y-40244721D02*
X94443172Y-40199648D01*
X69206457Y-40760497D02*
X69336055Y-40525272D01*
X66951713Y-77006327D02*
X66814384Y-76589266D01*
X68725989Y-41667385D02*
X68894554Y-41344450D01*
X106623289Y-76436259D02*
X106609227Y-76439707D01*
X109003711Y-67257336D02*
X108984535Y-67323543D01*
X101429954Y-43551618D02*
X101611551Y-43675141D01*
X109204729Y-56164205D02*
X109234227Y-56208531D01*
X110072033Y-63045112D02*
X110059747Y-63173441D01*
X61915320Y-49445142D02*
X62034145Y-49417502D01*
X64250596Y-67058615D02*
X64190206Y-66786211D01*
X68894554Y-41344450D02*
X69057000Y-41037855D01*
X106352737Y-49164354D02*
X106360103Y-49269872D01*
X88413675Y-79308245D02*
X87543975Y-79310560D01*
X106834435Y-51637239D02*
X106927277Y-51830094D01*
X63601839Y-49005419D02*
X63609227Y-49003299D01*
X109817232Y-64691949D02*
X109811211Y-64725296D01*
X109773449Y-64966291D02*
X109738775Y-65063998D01*
X92002471Y-79301680D02*
X91170005Y-79303436D01*
X61503345Y-50555827D02*
X61487477Y-50309543D01*
X109534900Y-57159615D02*
X109558053Y-57232014D01*
X106060284Y-46944058D02*
X106153183Y-47226960D01*
X70955578Y-40456446D02*
X70936191Y-40626077D01*
X62996066Y-60683420D02*
X62979266Y-60587972D01*
X74878596Y-45809132D02*
X75030652Y-45752296D01*
X62541694Y-57954671D02*
X62498703Y-57676655D01*
X107395163Y-76168880D02*
X107156756Y-76256476D01*
X74415583Y-45952897D02*
X74676675Y-45874811D01*
X70373224Y-46877663D02*
X70429684Y-46965223D01*
X84014445Y-43122917D02*
X84250676Y-43056137D01*
X73184227Y-46297254D02*
X73678665Y-46160554D01*
X103956139Y-77361232D02*
X103517735Y-77511429D01*
X80125352Y-34891620D02*
X80142532Y-34891568D01*
X105040931Y-46050419D02*
X105271829Y-46210987D01*
X109269133Y-56269117D02*
X109259227Y-56283679D01*
X110007010Y-63599279D02*
X109985262Y-63727718D01*
X108588079Y-68158537D02*
X108442821Y-68451566D01*
X94074943Y-40305395D02*
X94284840Y-40244721D01*
X70658891Y-42511869D02*
X70658107Y-42522311D01*
X64765993Y-69292862D02*
X64661126Y-68856976D01*
X103842495Y-45236933D02*
X103935633Y-45296735D01*
X70322740Y-46250394D02*
X70332032Y-46501677D01*
X80068150Y-43926104D02*
X80140341Y-44034611D01*
X108114210Y-71941012D02*
X108153776Y-72487148D01*
X67798486Y-43574948D02*
X68008325Y-43117057D01*
X63977557Y-65852915D02*
X63913087Y-65552757D01*
X62368285Y-56823304D02*
X62327232Y-56555730D01*
X70736648Y-41925058D02*
X70716343Y-42052527D01*
X99659128Y-78861981D02*
X99212557Y-79019509D01*
X70555433Y-43423451D02*
X70526304Y-43638819D01*
X68008325Y-43117057D02*
X68221356Y-42668831D01*
X76776248Y-40670658D02*
X76983586Y-40205114D01*
X63771487Y-64844235D02*
X63712612Y-64540864D01*
X106153183Y-47226960D02*
X106154854Y-47236254D01*
X107156756Y-76256476D02*
X106933953Y-76335700D01*
X67602724Y-44017944D02*
X67798486Y-43574948D01*
X80356841Y-34924347D02*
X80526079Y-35013615D01*
X110111305Y-60241470D02*
X110120905Y-60338066D01*
X62484881Y-57586243D02*
X62420122Y-57162184D01*
X98103958Y-41249907D02*
X98293285Y-41379795D01*
X106692085Y-51298072D02*
X106692356Y-51298866D01*
X95000790Y-79291137D02*
X94313096Y-79294231D01*
X68507633Y-79395537D02*
X68271255Y-79389756D01*
X100719467Y-78474298D02*
X100709227Y-78478696D01*
X67536902Y-78723150D02*
X67447135Y-78470667D01*
X62086692Y-54952966D02*
X62062063Y-54776394D01*
X77217663Y-39703342D02*
X77481777Y-39158113D01*
X96750568Y-40305807D02*
X96944731Y-40435249D01*
X110115941Y-62671253D02*
X110094730Y-62836994D01*
X62748311Y-59197342D02*
X62717956Y-59014035D01*
X97398678Y-40769036D02*
X97567769Y-40885741D01*
X106509227Y-76480777D02*
X106431198Y-76514235D01*
X90274987Y-41378783D02*
X90601362Y-41289158D01*
X70918874Y-38951027D02*
X70955680Y-38975757D01*
X109837771Y-58360406D02*
X109857742Y-58462969D01*
X80411498Y-36529195D02*
X80406453Y-36557871D01*
X98035556Y-79264508D02*
X97835172Y-79268601D01*
X61487477Y-50309543D02*
X61484227Y-50188483D01*
X61679307Y-52044527D02*
X61639120Y-51746710D01*
X109135907Y-55949510D02*
X109185719Y-56054244D01*
X70323822Y-45435484D02*
X70318372Y-45695547D01*
X71039575Y-39768549D02*
X71030981Y-39946747D01*
X83153104Y-43374427D02*
X83379518Y-43307894D01*
X80175418Y-39367261D02*
X80159283Y-39613414D01*
X108150461Y-69305746D02*
X108136416Y-69417883D01*
X70429684Y-46965223D02*
X70516672Y-47007958D01*
X80609222Y-35479315D02*
X80601085Y-35505276D01*
X94609050Y-40154388D02*
X94758352Y-40111077D01*
X110075743Y-59981954D02*
X110096319Y-60149589D01*
X75556075Y-44744475D02*
X75621351Y-44384860D01*
X62498703Y-57676655D02*
X62484881Y-57586243D01*
X110134581Y-60756897D02*
X110138586Y-61041679D01*
X88822331Y-41785310D02*
X89009227Y-41732505D01*
X86071721Y-79316334D02*
X85462598Y-79319855D01*
X61742115Y-52519012D02*
X61714619Y-52309320D01*
X62035174Y-54581687D02*
X62011713Y-54420958D01*
X65186411Y-71009614D02*
X65163780Y-70912475D01*
X93091078Y-40590044D02*
X93313951Y-40526623D01*
X62939255Y-60347559D02*
X62908447Y-60163871D01*
X95853699Y-39823666D02*
X95940569Y-39821240D01*
X102570423Y-44342937D02*
X102866311Y-44548072D01*
X69720778Y-39866674D02*
X69736649Y-39835420D01*
X69336055Y-40525272D02*
X69438927Y-40345076D01*
X76428595Y-41521958D02*
X76592350Y-41107197D01*
X69532379Y-40202022D02*
X69568740Y-40148091D01*
X97208844Y-40626434D02*
X97234227Y-40650392D01*
X65927780Y-73709917D02*
X65828881Y-73364114D01*
X75142147Y-45700738D02*
X75222389Y-45650893D01*
X66679912Y-76176866D02*
X66552420Y-75781652D01*
X75445422Y-45308908D02*
X75496767Y-45121813D01*
X67250069Y-44887055D02*
X67296969Y-44760996D01*
X98967016Y-79105851D02*
X98655310Y-79189950D01*
X98142016Y-79260412D02*
X98035556Y-79264508D01*
X92234227Y-40833453D02*
X92469532Y-40764838D01*
X98655310Y-79189950D02*
X98288773Y-79247223D01*
X63913087Y-65552757D02*
X63886515Y-65426677D01*
X98867788Y-41787474D02*
X99074638Y-41928517D01*
X96015970Y-39854706D02*
X96154217Y-39932425D01*
X94313096Y-79294231D02*
X93580094Y-79297042D01*
X83379518Y-43307894D02*
X83459227Y-43284368D01*
X70743370Y-38901017D02*
X70918874Y-38951027D01*
X80526079Y-35013615D02*
X80628464Y-35145768D01*
X108336356Y-68676358D02*
X108261286Y-68853543D01*
X80601085Y-35505276D02*
X80566196Y-35623235D01*
X70466302Y-44079087D02*
X70460782Y-44114338D01*
X92934227Y-40633633D02*
X93091078Y-40590044D01*
X61791897Y-52902248D02*
X61768700Y-52730844D01*
X108207942Y-73224905D02*
X108226506Y-73600263D01*
X62618694Y-58428526D02*
X62579291Y-58190445D01*
X105622833Y-46459730D02*
X105886709Y-46692999D01*
X70129500Y-39249929D02*
X70339764Y-39056758D01*
X96215945Y-79284242D02*
X95637098Y-79287796D01*
X100167788Y-42689249D02*
X100374638Y-42830292D01*
X68252265Y-42605278D02*
X68397975Y-42310695D01*
X80113915Y-40180994D02*
X80108499Y-40203202D01*
X84534227Y-42980338D02*
X84614142Y-42959095D01*
X109084838Y-55807742D02*
X109135907Y-55949510D01*
X103553815Y-45023823D02*
X103675301Y-45110957D01*
X80328811Y-44175223D02*
X80398048Y-44180044D01*
X102209227Y-77957070D02*
X101849876Y-78079257D01*
X62111712Y-55122335D02*
X62109271Y-55106361D01*
X80082238Y-40399493D02*
X80065887Y-40588549D01*
X79942659Y-43001107D02*
X79954146Y-43331424D01*
X109098927Y-67040100D02*
X109055904Y-67143702D01*
X109985262Y-63727718D02*
X109962543Y-63896698D01*
X66664432Y-46645138D02*
X66780848Y-46276161D01*
X75699156Y-43997477D02*
X75782402Y-43616717D01*
X80159283Y-39613414D02*
X80154188Y-39699206D01*
X61935174Y-53880307D02*
X61911713Y-53719578D01*
X80557954Y-35693146D02*
X80558801Y-35735167D01*
X101234227Y-43425404D02*
X101299008Y-43464867D01*
X85759227Y-42629929D02*
X85939391Y-42580656D01*
X62994450Y-49174556D02*
X63153266Y-49131653D01*
X110120905Y-60338066D02*
X110128675Y-60516117D01*
X108998416Y-55579160D02*
X109070826Y-55765662D01*
X94758352Y-40111077D02*
X94960895Y-40051205D01*
X69736649Y-39835420D02*
X69925488Y-39511580D01*
X88109227Y-41981684D02*
X88189543Y-41960894D01*
X110041517Y-59628926D02*
X110056990Y-59790582D01*
X63609227Y-49003299D02*
X63862413Y-48930935D01*
X62059271Y-54755671D02*
X62035174Y-54581687D01*
X92707611Y-40696744D02*
X92903690Y-40641952D01*
X109221264Y-56124440D02*
X109209227Y-56133383D01*
X62900906Y-49197495D02*
X62909227Y-49195749D01*
X83194981Y-79371863D02*
X83143771Y-79378620D01*
X62872344Y-59950278D02*
X62862239Y-59890779D01*
X94443172Y-40199648D02*
X94529193Y-40176127D01*
X66436031Y-75416148D02*
X66334868Y-75092880D01*
X108175737Y-69147607D02*
X108150461Y-69305746D01*
X62247404Y-56042089D02*
X62234041Y-55958038D01*
X105886709Y-46692999D02*
X106060284Y-46944058D01*
X109253119Y-56313951D02*
X109277109Y-56350234D01*
X70332032Y-46501677D02*
X70345715Y-46706534D01*
X96541063Y-40170504D02*
X96750568Y-40305807D01*
X88189543Y-41960894D02*
X88347516Y-41917815D01*
X75782402Y-43616717D02*
X75864000Y-43276976D01*
X99074638Y-41928517D02*
X99184227Y-42002648D01*
X66814384Y-76589266D02*
X66679912Y-76176866D01*
X101828285Y-43824915D02*
X101984227Y-43933871D01*
X109234227Y-56208531D02*
X109269133Y-56269117D01*
X80065887Y-40588549D02*
X80057224Y-40706017D01*
X70426548Y-44399834D02*
X70410842Y-44557841D01*
X109070826Y-55765662D02*
X109084838Y-55807742D01*
X66903083Y-45898661D02*
X67025674Y-45529842D01*
X106431198Y-76514235D02*
X106298544Y-76561622D01*
X61758857Y-52651529D02*
X61742115Y-52519012D01*
X106375978Y-49477006D02*
X106393092Y-49664339D01*
X62234041Y-55958038D02*
X62202388Y-55754170D01*
X81489933Y-43863347D02*
X81809272Y-43767975D01*
X89009227Y-41732505D02*
X89271132Y-41658410D01*
X101299008Y-43464867D02*
X101429954Y-43551618D01*
X109738775Y-65063998D02*
X109738483Y-65064770D01*
X109956561Y-63948767D02*
X109935784Y-64105925D01*
X61497746Y-49840492D02*
X61524966Y-49748571D01*
X79437647Y-35424838D02*
X79548968Y-35287933D01*
X80645520Y-35205683D02*
X80641753Y-35326547D01*
X66366220Y-47691765D02*
X66404728Y-47528907D01*
X103184227Y-44767088D02*
X103384603Y-44905290D01*
X67218448Y-77804328D02*
X67087775Y-77415523D01*
X76405208Y-79426318D02*
X75652568Y-79426808D01*
X107016676Y-52002204D02*
X107089152Y-52126180D01*
X100374638Y-42830292D02*
X100484227Y-42904423D01*
X64136557Y-66548200D02*
X64103154Y-66403600D01*
X80879363Y-44050671D02*
X80984227Y-44017733D01*
X109655866Y-57568759D02*
X109677391Y-57667929D01*
X109921317Y-58821644D02*
X109944533Y-58981528D01*
X98288773Y-79247223D02*
X98142016Y-79260412D01*
X80142532Y-34891568D02*
X80356841Y-34924347D01*
X64037348Y-66120451D02*
X63977557Y-65852915D01*
X62793516Y-59479663D02*
X62770844Y-59339149D01*
X89511390Y-41590771D02*
X89747272Y-41524808D01*
X73420030Y-79425468D02*
X72706488Y-79424076D01*
X106360103Y-49269872D02*
X106375978Y-49477006D01*
X103935633Y-45296735D02*
X104093903Y-45402297D01*
X70857351Y-41130604D02*
X70836247Y-41294706D01*
X89271132Y-41658410D02*
X89511390Y-41590771D01*
X100484227Y-42904423D02*
X100704010Y-43053685D01*
X108046470Y-53602452D02*
X108165330Y-53821478D01*
X61524966Y-49748571D02*
X61575000Y-49675000D01*
X63363215Y-49073216D02*
X63601839Y-49005419D01*
X71000068Y-39020552D02*
X71027835Y-39087330D01*
X80493576Y-36012718D02*
X80460031Y-36198907D01*
X61836837Y-53188132D02*
X61814274Y-53044273D01*
X76592350Y-41107197D02*
X76776248Y-40670658D01*
X78904558Y-36398124D02*
X79368324Y-35527229D01*
X72019352Y-79422206D02*
X71365276Y-79419856D01*
X108611734Y-54721227D02*
X108759610Y-55037618D01*
X64978471Y-70177893D02*
X64963344Y-70110898D01*
X80555243Y-35688541D02*
X80557954Y-35693146D01*
X68221356Y-42668831D02*
X68252265Y-42605278D01*
X63153266Y-49131653D02*
X63363215Y-49073216D01*
X99998688Y-42572448D02*
X100167788Y-42689249D01*
X96731252Y-79280511D02*
X96215945Y-79284242D01*
X70716343Y-42052527D02*
X70706272Y-42096473D01*
X101984227Y-43933871D02*
X102265782Y-44130835D01*
X62294826Y-56345586D02*
X62268929Y-56178997D01*
X108160904Y-72565730D02*
X108185969Y-72875074D01*
X109863720Y-64433227D02*
X109844362Y-64541308D01*
X110019986Y-63521682D02*
X110007010Y-63599279D01*
X62979266Y-60587972D02*
X62966869Y-60514983D01*
X62034145Y-49417502D02*
X62212841Y-49372929D01*
X77779226Y-38562203D02*
X78113307Y-37908385D01*
X79940592Y-42583557D02*
X79942659Y-43001107D01*
X86764419Y-79313245D02*
X86071721Y-79316334D01*
X103794335Y-45205635D02*
X103842495Y-45236933D01*
X80279819Y-37939755D02*
X80264718Y-38162039D01*
X87559227Y-42132532D02*
X87768779Y-42073381D01*
X98520241Y-41540170D02*
X98534227Y-41551760D01*
X79368324Y-35527229D02*
X79371736Y-35520848D01*
X109332602Y-56456895D02*
X109347178Y-56513054D01*
X79371736Y-35520848D02*
X79437647Y-35424838D01*
X106035058Y-76642344D02*
X106018744Y-76646072D01*
X62667105Y-58713462D02*
X62618694Y-58428526D01*
X80243777Y-38498988D02*
X80226829Y-38736334D01*
X110023407Y-59476848D02*
X110041517Y-59628926D01*
X100298959Y-78633830D02*
X100019400Y-78734092D01*
X108759610Y-55037618D02*
X108891591Y-55330037D01*
X66334868Y-75092880D02*
X66253053Y-74824374D01*
X103675301Y-45110957D02*
X103732504Y-45154960D01*
X72872993Y-46383450D02*
X73184227Y-46297254D01*
X101134227Y-43358356D02*
X101197521Y-43406114D01*
X70334710Y-45215994D02*
X70323822Y-45435484D01*
X109790465Y-64849949D02*
X109782238Y-64920072D01*
X80126419Y-40075937D02*
X80113915Y-40180994D01*
X109955580Y-59064152D02*
X109978514Y-59225252D01*
X70345715Y-46706534D02*
X70363525Y-46843213D01*
X108102034Y-69817403D02*
X108082803Y-70292706D01*
X68121161Y-79383474D02*
X68066354Y-79377729D01*
X97176944Y-79276637D02*
X96731252Y-79280511D01*
X107258566Y-52355924D02*
X107370436Y-52519598D01*
X109857742Y-58462969D02*
X109883298Y-58607975D01*
X105271829Y-46210987D02*
X105466645Y-46347797D01*
X93580094Y-79297042D02*
X92807860Y-79299537D01*
X104375385Y-77217183D02*
X103956139Y-77361232D01*
X106152690Y-76608979D02*
X106035058Y-76642344D01*
X70706272Y-42096473D02*
X70692122Y-42176816D01*
X76148323Y-42315051D02*
X76281685Y-41922167D01*
X109944533Y-58981528D02*
X109955580Y-59064152D01*
X106927277Y-51830094D02*
X107016676Y-52002204D01*
X105410265Y-76859134D02*
X105113240Y-76962415D01*
X108457222Y-54400190D02*
X108611734Y-54721227D01*
X70816443Y-41415587D02*
X70804742Y-41460475D01*
X65994877Y-48296367D02*
X66131425Y-48234482D01*
X79984431Y-41398995D02*
X79971558Y-41518806D01*
X81620587Y-79405892D02*
X81109094Y-79410025D01*
X63100309Y-61256685D02*
X63053845Y-61002561D01*
X68397975Y-42310695D02*
X68558173Y-41993766D01*
X102265782Y-44130835D02*
X102570423Y-44342937D01*
X109334208Y-66375223D02*
X109245048Y-66635087D01*
X80654875Y-44119900D02*
X80879363Y-44050671D01*
X98582460Y-41588605D02*
X98698688Y-41670673D01*
X84250676Y-43056137D02*
X84431685Y-43006470D01*
X99834227Y-42453535D02*
X99882460Y-42490381D01*
X109738483Y-65064770D02*
X109689790Y-65217259D01*
X82767966Y-79390839D02*
X82456676Y-79396296D01*
X61484227Y-50188483D02*
X61486460Y-49978038D01*
X109454157Y-56855498D02*
X109485409Y-56987862D01*
X71027835Y-39087330D02*
X71042214Y-39196972D01*
X80274426Y-44149981D02*
X80328811Y-44175223D01*
X70906919Y-40804963D02*
X70893479Y-40865387D01*
X110128854Y-62470197D02*
X110120706Y-62625739D01*
X80530540Y-35855967D02*
X80493576Y-36012718D01*
X80140557Y-39907465D02*
X80126419Y-40075937D01*
X84614142Y-42959095D02*
X84762981Y-42916899D01*
X61986692Y-54251586D02*
X61962063Y-54075013D01*
X62862239Y-59890779D02*
X62825877Y-59675013D01*
X64365413Y-67582220D02*
X64309919Y-67330424D01*
X104300437Y-45542033D02*
X104538366Y-45704356D01*
X107089152Y-52126180D02*
X107119503Y-52166683D01*
X105919895Y-76676374D02*
X105884227Y-76690343D01*
X109509888Y-65844656D02*
X109424811Y-66104822D01*
X70850488Y-46963635D02*
X70998772Y-46920564D01*
X105466645Y-46347797D02*
X105608510Y-46449264D01*
X80154188Y-39699206D02*
X80140557Y-39907465D01*
X63219575Y-61907950D02*
X63162146Y-61594132D01*
X88077006Y-41989569D02*
X88109227Y-41981684D01*
X82071999Y-79401315D02*
X81620587Y-79405892D01*
X62717956Y-59014035D02*
X62681431Y-58797448D01*
X109196865Y-56070759D02*
X109221264Y-56124440D01*
X70585360Y-43207939D02*
X70555433Y-43423451D01*
X71338550Y-46819027D02*
X71768578Y-46694408D01*
X108963014Y-67380345D02*
X108903492Y-67511239D01*
X66236409Y-48125339D02*
X66290829Y-48004687D01*
X86438298Y-42444265D02*
X86584227Y-42404381D01*
X108227360Y-75714037D02*
X108158261Y-75816677D01*
X91951515Y-40915514D02*
X92221960Y-40837069D01*
X83743719Y-43200948D02*
X84014445Y-43122917D01*
X80264718Y-38162039D02*
X80259016Y-38256558D01*
X62062063Y-54776394D02*
X62059271Y-54755671D01*
X109905981Y-64257882D02*
X109873740Y-64383472D01*
X66135375Y-74387664D02*
X66088695Y-74233208D01*
X65386592Y-71749209D02*
X65321476Y-71511859D01*
X85522209Y-42696357D02*
X85730038Y-42637953D01*
X64535193Y-48739977D02*
X64893533Y-48638750D01*
X75621351Y-44384860D02*
X75699156Y-43997477D01*
X108813214Y-67700966D02*
X108699426Y-67934265D01*
X108305334Y-54093832D02*
X108457222Y-54400190D01*
X70757020Y-41761067D02*
X70736648Y-41925058D01*
X71768578Y-46694408D02*
X72282258Y-46548588D01*
X103517735Y-77511429D02*
X103070965Y-77664057D01*
X110128675Y-60516117D02*
X110134581Y-60756897D01*
X77150989Y-79425363D02*
X76405208Y-79426318D01*
X80641753Y-35326547D02*
X80609222Y-35479315D01*
X109395564Y-56662929D02*
X109428972Y-56749634D01*
X82564764Y-43546528D02*
X82872121Y-43456722D01*
X64661126Y-68856976D02*
X64554792Y-68406906D01*
X75510417Y-45041925D02*
X75556075Y-44744475D01*
X67339609Y-78160218D02*
X67218448Y-77804328D01*
X92807860Y-79299537D02*
X92002471Y-79301680D01*
X70789465Y-41523999D02*
X70769870Y-41653965D01*
X109962543Y-63896698D02*
X109956561Y-63948767D01*
X106255783Y-48012809D02*
X106304919Y-48543320D01*
X70460782Y-44114338D02*
X70445714Y-44227725D01*
X82259227Y-43635592D02*
X82564764Y-43546528D01*
X91384227Y-41074982D02*
X91651357Y-41000761D01*
X101849876Y-78079257D02*
X101517865Y-78192992D01*
X108248636Y-75550736D02*
X108234501Y-75685912D01*
X67431924Y-44421481D02*
X67602724Y-44017944D01*
X109782238Y-64920072D02*
X109783131Y-64925690D01*
X108258592Y-74729902D02*
X108260366Y-75057771D01*
X69057000Y-41037855D02*
X69206457Y-40760497D01*
X109873740Y-64383472D02*
X109863720Y-64433227D01*
X80226829Y-38736334D02*
X80211139Y-38927900D01*
X109635590Y-65438130D02*
X109582470Y-65615500D01*
X79280656Y-79419737D02*
X78595366Y-79422070D01*
X61886853Y-53550162D02*
X61862629Y-53373554D01*
X109053256Y-67148953D02*
X109003711Y-67257336D01*
X61811306Y-53027268D02*
X61791897Y-52902248D01*
X106748786Y-76398359D02*
X106623289Y-76436259D01*
X75030652Y-45752296D02*
X75142147Y-45700738D01*
X70509931Y-43763648D02*
X70487349Y-43932768D01*
X89376804Y-79306273D02*
X88413675Y-79308245D01*
X89996047Y-41455739D02*
X90274987Y-41378783D01*
X72282258Y-46548588D02*
X72872993Y-46383450D01*
X109582470Y-65615500D02*
X109509888Y-65844656D01*
X87171574Y-42241784D02*
X87453911Y-42162437D01*
X80140341Y-44034611D02*
X80216443Y-44106451D01*
X64181277Y-48840266D02*
X64535193Y-48739977D01*
X79943728Y-42276440D02*
X79940592Y-42583557D01*
X76983586Y-40205114D02*
X77217663Y-39703342D01*
X61909271Y-53703600D02*
X61886853Y-53550162D01*
X106426436Y-49933758D02*
X106447761Y-50118063D01*
X99820241Y-42441945D02*
X99834227Y-42453535D01*
X108234501Y-75685912D02*
X108227360Y-75714037D01*
X80211139Y-38927900D02*
X80206695Y-38974606D01*
X106621870Y-51058919D02*
X106692085Y-51298072D01*
X66552420Y-75781652D02*
X66436031Y-75416148D01*
X67296969Y-44760996D02*
X67431924Y-44421481D01*
X97282457Y-40687093D02*
X97398678Y-40769036D01*
X99882460Y-42490381D02*
X99998688Y-42572448D01*
X95209227Y-39976852D02*
X95463746Y-39905369D01*
X64893533Y-48638750D02*
X65134227Y-48570963D01*
X80406453Y-36557871D02*
X80395046Y-36647439D01*
X70366727Y-44951611D02*
X70351299Y-45058827D01*
X110134887Y-62246300D02*
X110128854Y-62470197D01*
X109913147Y-64230257D02*
X109905981Y-64257882D01*
X79932476Y-79416950D02*
X79280656Y-79419737D01*
X70487349Y-43932768D02*
X70466302Y-44079087D01*
X96944731Y-40435249D02*
X97104005Y-40546301D01*
X106408330Y-49795907D02*
X106426436Y-49933758D01*
X79959982Y-41718515D02*
X79950455Y-41977826D01*
X104790820Y-45877680D02*
X105040931Y-46050419D01*
X92469532Y-40764838D02*
X92707611Y-40696744D01*
X61565391Y-51182009D02*
X61530158Y-50855729D01*
X109608562Y-57392578D02*
X109646277Y-57527113D01*
X81809272Y-43767975D02*
X82131498Y-43672904D01*
X70836247Y-41294706D02*
X70816443Y-41415587D01*
X70607971Y-43030781D02*
X70585360Y-43207939D01*
X80057224Y-40706017D02*
X80038013Y-40943977D01*
X95940569Y-39821240D02*
X96015970Y-39854706D01*
X97884227Y-41100872D02*
X98103958Y-41249907D01*
X63383735Y-62820449D02*
X63365792Y-62721351D01*
X71044917Y-39552267D02*
X71039575Y-39768549D01*
X108210213Y-69003749D02*
X108175737Y-69147607D01*
X75326331Y-45542083D02*
X75368643Y-45475988D01*
X70918397Y-40752300D02*
X70906919Y-40804963D01*
X99403958Y-42151682D02*
X99593285Y-42281570D01*
X108984535Y-67323543D02*
X108963014Y-67380345D01*
X110140752Y-61668343D02*
X110138841Y-61972773D01*
X82456676Y-79396296D02*
X82071999Y-79401315D01*
X108064171Y-75898649D02*
X107983678Y-75937797D01*
X75380971Y-45455696D02*
X75445422Y-45308908D01*
X70955680Y-38975757D02*
X71000068Y-39020552D01*
X109245048Y-66635087D02*
X109164298Y-66863637D01*
X65776342Y-48375456D02*
X65994877Y-48296367D01*
X110056990Y-59790582D02*
X110075743Y-59981954D01*
X103734227Y-45156741D02*
X103794335Y-45205635D01*
X62908447Y-60163871D02*
X62872344Y-59950278D01*
X94529193Y-40176127D02*
X94534227Y-40174906D01*
X65486049Y-48468178D02*
X65776342Y-48375456D01*
X80460031Y-36198907D02*
X80453487Y-36244231D01*
X71013313Y-40095200D02*
X70995850Y-40162387D01*
X80206695Y-38974606D02*
X80192191Y-39140956D01*
X96154217Y-39932425D02*
X96335764Y-40041867D01*
X75909047Y-43107742D02*
X76025209Y-42707833D01*
X87768779Y-42073381D02*
X87950612Y-42023193D01*
X100987109Y-78377284D02*
X100813992Y-78438928D01*
X109646277Y-57527113D02*
X109655866Y-57568759D01*
X70974403Y-40298576D02*
X70955578Y-40456446D01*
X108078543Y-70820561D02*
X108089072Y-71377740D01*
X93572968Y-40451934D02*
X93834227Y-40375719D01*
X61714619Y-52309320D02*
X61679307Y-52044527D01*
X106304919Y-48543320D02*
X106352737Y-49164354D01*
X69508202Y-40232805D02*
X69532379Y-40202022D01*
X74086015Y-46046957D02*
X74415583Y-45952897D01*
X86865023Y-42327076D02*
X87171574Y-42241784D01*
X71030981Y-39946747D02*
X71020500Y-40063429D01*
X110096319Y-60149589D02*
X110111305Y-60241470D01*
X63053845Y-61002561D02*
X63020012Y-60816544D01*
X107170587Y-52231735D02*
X107258566Y-52355924D01*
X77481777Y-39158113D02*
X77779226Y-38562203D01*
X110094730Y-62836994D02*
X110072033Y-63045112D01*
X65163780Y-70912475D02*
X65136376Y-70793407D01*
X62794458Y-49222770D02*
X62900906Y-49197495D01*
X97567769Y-40885741D02*
X97774608Y-41026728D01*
X61862629Y-53373554D02*
X61859912Y-53352909D01*
X80309398Y-37612648D02*
X80307167Y-37630325D01*
X65828881Y-73364114D02*
X65715085Y-72956367D01*
X108260366Y-75057771D02*
X108257153Y-75336369D01*
X74899723Y-79426832D02*
X74153327Y-79426386D01*
X97835172Y-79268601D02*
X97546943Y-79272656D01*
X63584632Y-63877142D02*
X63522383Y-63552411D01*
X110140655Y-61351736D02*
X110140752Y-61668343D01*
X70339764Y-39056758D02*
X70547360Y-38938358D01*
X85034227Y-42837733D02*
X85274459Y-42767482D01*
X67143157Y-45186905D02*
X67250069Y-44887055D01*
X70182914Y-79413707D02*
X69667934Y-79409902D01*
X109277109Y-56350234D02*
X109332602Y-56456895D01*
X70998772Y-46920564D02*
X71338550Y-46819027D01*
X69925488Y-39511580D02*
X70129500Y-39249929D01*
X100893370Y-43184127D02*
X101037175Y-43285178D01*
X104093903Y-45402297D02*
X104300437Y-45542033D01*
X70675145Y-42325750D02*
X70658891Y-42511869D01*
X81204559Y-43949704D02*
X81489933Y-43863347D01*
X109783131Y-64925690D02*
X109773449Y-64966291D01*
X92903690Y-40641952D02*
X92934227Y-40633633D01*
X98534227Y-41551760D02*
X98582460Y-41588605D01*
X107119503Y-52166683D02*
X107170587Y-52231735D01*
X70516672Y-47007958D02*
X70651252Y-47007039D01*
X106609227Y-76439707D02*
X106519394Y-76475076D01*
X70936191Y-40626077D02*
X70918397Y-40752300D01*
X80259016Y-38256558D02*
X80243777Y-38498988D01*
X105608510Y-46449264D02*
X105622833Y-46459730D01*
X66008456Y-73982075D02*
X65927780Y-73709917D01*
X110059747Y-63173441D02*
X110040737Y-63359343D01*
X80002805Y-34899963D02*
X80125352Y-34891620D01*
X83143771Y-79378620D02*
X82999215Y-79384947D01*
X80558801Y-35735167D02*
X80535545Y-35838115D01*
X67025674Y-45529842D02*
X67143157Y-45186905D01*
X80097245Y-40263164D02*
X80082238Y-40399493D01*
X75280682Y-45599196D02*
X75326331Y-45542083D01*
X102626623Y-77815394D02*
X102209227Y-77957070D01*
X64554792Y-68406906D02*
X64453913Y-67972153D01*
X107833049Y-53242377D02*
X107834227Y-53246928D01*
X70351299Y-45058827D02*
X70334710Y-45215994D01*
X74153327Y-79426386D02*
X73420030Y-79425468D01*
X64862469Y-69685059D02*
X64765993Y-69292862D01*
X62159231Y-55457051D02*
X62135161Y-55283065D01*
X95195446Y-39981002D02*
X95209227Y-39976852D01*
X97234227Y-40650392D02*
X97282457Y-40687093D01*
X63822381Y-65104867D02*
X63771487Y-64844235D01*
X88564621Y-41857577D02*
X88822331Y-41785310D01*
X61894334Y-49450617D02*
X61915320Y-49445142D01*
X80324135Y-37471747D02*
X80309398Y-37612648D01*
X66088695Y-74233208D02*
X66067582Y-74168886D01*
X109376406Y-56622042D02*
X109395564Y-56662929D01*
X65063821Y-70511686D02*
X65017169Y-70334190D01*
X80535545Y-35838115D02*
X80530540Y-35855967D01*
X61575000Y-49675000D02*
X61627820Y-49619274D01*
X61606518Y-51507425D02*
X61565391Y-51182009D01*
X67675675Y-79056493D02*
X67646668Y-79004118D01*
X109799154Y-58183938D02*
X109837771Y-58360406D01*
X97774608Y-41026728D02*
X97884227Y-41100872D01*
X80341786Y-37274865D02*
X80324135Y-37471747D01*
X69438927Y-40345076D02*
X69508202Y-40232805D01*
X64963344Y-70110898D02*
X64937212Y-69994442D01*
X62770844Y-59339149D02*
X62767056Y-59314645D01*
X109209227Y-56133383D02*
X109204729Y-56164205D01*
X108153776Y-72487148D02*
X108160904Y-72565730D01*
X82999215Y-79384947D02*
X82767966Y-79390839D01*
X75368643Y-45475988D02*
X75380971Y-45455696D01*
X80398048Y-44180044D02*
X80500586Y-44162314D01*
X70363525Y-46843213D02*
X70373224Y-46877663D01*
X62327232Y-56555730D02*
X62294826Y-56345586D01*
X108903492Y-67511239D02*
X108813214Y-67700966D01*
X109485409Y-56987862D02*
X109534900Y-57159615D01*
X110000171Y-59351853D02*
X110008600Y-59389793D01*
X63862413Y-48930935D02*
X64181277Y-48840266D01*
X80500586Y-44162314D02*
X80654875Y-44119900D01*
X79971558Y-41518806D02*
X79959982Y-41718515D01*
X110040737Y-63359343D02*
X110019986Y-63521682D01*
X65280289Y-71363363D02*
X65229102Y-71175419D01*
X70318372Y-45695547D02*
X70318099Y-45974434D01*
X61627820Y-49619274D02*
X61758359Y-49516902D01*
X108261286Y-68853543D02*
X108210213Y-69003749D01*
X90992444Y-41182082D02*
X91384227Y-41074982D01*
X109844362Y-64541308D02*
X109817232Y-64691949D01*
X109558053Y-57232014D02*
X109608562Y-57392578D01*
X80015046Y-41171470D02*
X79992272Y-41350908D01*
X106205653Y-47576045D02*
X106255783Y-48012809D01*
X65589720Y-72498376D02*
X65533430Y-72290187D01*
X99593285Y-42281570D02*
X99737087Y-42381821D01*
X106552672Y-50767969D02*
X106621870Y-51058919D01*
X64937212Y-69994442D02*
X64896561Y-69823698D01*
X61814274Y-53044273D02*
X61811306Y-53027268D01*
X102866311Y-44548072D02*
X103121609Y-44724133D01*
X100503392Y-78559184D02*
X100298959Y-78633830D01*
X61530158Y-50855729D02*
X61503345Y-50555827D01*
X106751634Y-51451033D02*
X106834435Y-51637239D01*
X109347178Y-56513054D02*
X109376406Y-56622042D01*
X70658107Y-42522311D02*
X70636465Y-42767112D01*
X100813992Y-78438928D02*
X100719467Y-78474298D01*
X84953835Y-42861423D02*
X85034227Y-42837733D01*
X62202388Y-55754170D02*
X62173000Y-55555614D01*
X103121609Y-44724133D02*
X103184227Y-44767088D01*
X100709227Y-78478696D02*
X100638286Y-78508143D01*
X63886515Y-65426677D02*
X63861866Y-65304951D01*
X108158261Y-75816677D02*
X108064171Y-75898649D01*
X83459227Y-43284368D02*
X83743719Y-43200948D01*
X108252147Y-74367721D02*
X108258592Y-74729902D01*
X93834227Y-40375719D02*
X94074943Y-40305395D01*
X64190206Y-66786211D02*
X64136557Y-66548200D01*
X66253053Y-74824374D02*
X66194711Y-74623154D01*
X85730038Y-42637953D02*
X85759227Y-42629929D01*
X105644965Y-76776882D02*
X105410265Y-76859134D01*
X109677391Y-57667929D02*
X109714495Y-57827577D01*
X65136376Y-70793407D02*
X65093600Y-70623964D01*
X65093600Y-70623964D02*
X65063821Y-70511686D01*
X80566196Y-35623235D02*
X80555243Y-35688541D01*
X106018744Y-76646072D02*
X105919895Y-76676374D01*
X92221960Y-40837069D02*
X92234227Y-40833453D01*
X104538366Y-45704356D02*
X104790820Y-45877680D01*
X67087775Y-77415523D02*
X66951713Y-77006327D01*
X73678665Y-46160554D02*
X74086015Y-46046957D01*
X66163965Y-74501747D02*
X66163059Y-74497124D01*
X101037175Y-43285178D02*
X101120289Y-43346271D01*
X69635997Y-40028310D02*
X69720778Y-39866674D01*
X85939391Y-42580656D02*
X86178319Y-42515331D01*
X75496767Y-45121813D02*
X75510417Y-45041925D01*
X84762981Y-42916899D02*
X84953835Y-42861423D01*
X63712612Y-64540864D02*
X63649184Y-64212563D01*
X70547360Y-38938358D02*
X70743370Y-38901017D01*
X108226506Y-73600263D02*
X108241347Y-73986188D01*
X66290829Y-48004687D02*
X66339235Y-47823343D01*
X62628163Y-49264786D02*
X62794458Y-49222770D01*
X108442821Y-68451566D02*
X108336356Y-68676358D01*
X106154854Y-47236254D02*
X106205653Y-47576045D01*
X93313951Y-40526623D02*
X93572968Y-40451934D01*
X80038013Y-40943977D02*
X80015046Y-41171470D01*
X70769870Y-41653965D02*
X70757020Y-41761067D01*
X101120289Y-43346271D02*
X101134227Y-43358356D01*
X101611551Y-43675141D02*
X101828285Y-43824915D01*
X106933953Y-76335700D02*
X106748786Y-76398359D01*
X86584227Y-42404381D02*
X86865023Y-42327076D01*
X68271255Y-79389756D02*
X68121161Y-79383474D01*
X106519394Y-76475076D02*
X106509227Y-76480777D01*
X91170005Y-79303436D02*
X90436648Y-79304611D01*
X108089072Y-71377740D02*
X108114210Y-71941012D01*
X100704010Y-43053685D02*
X100893370Y-43184127D01*
X83262847Y-79359186D02*
X83204048Y-79367269D01*
X83555607Y-79345022D02*
X83378938Y-79351781D01*
X80379641Y-36806570D02*
X80363116Y-37004867D01*
X97104005Y-40546301D02*
X97208844Y-40626434D01*
X70893479Y-40865387D02*
X70874197Y-40994867D01*
X100019400Y-78734092D02*
X99659128Y-78861981D01*
X95637098Y-79287796D02*
X95000790Y-79291137D01*
X68066354Y-79377729D02*
X67847149Y-79260684D01*
X87950612Y-42023193D02*
X88077006Y-41989569D01*
X63522383Y-63552411D02*
X63465865Y-63256179D01*
X106447761Y-50118063D02*
X106458761Y-50221746D01*
X69568740Y-40148091D02*
X69635997Y-40028310D01*
X66131425Y-48234482D02*
X66166177Y-48210718D01*
X80108499Y-40203202D02*
X80097245Y-40263164D01*
X106298544Y-76561622D02*
X106152690Y-76608979D01*
X95685733Y-39852782D02*
X95853699Y-39823666D01*
X61639120Y-51746710D02*
X61606518Y-51507425D01*
X107627141Y-76081106D02*
X107395163Y-76168880D01*
X80294815Y-37751514D02*
X80279819Y-37939755D01*
X68558173Y-41993766D02*
X68725989Y-41667385D01*
X63162146Y-61594132D02*
X63100309Y-61256685D01*
X107719363Y-53050995D02*
X107796768Y-53176077D01*
X109428972Y-56749634D02*
X109454157Y-56855498D01*
X107834227Y-53246928D02*
X107859846Y-53300780D01*
X66404728Y-47528907D02*
X66470909Y-47288714D01*
X62212841Y-49372929D02*
X62414730Y-49320591D01*
X64309919Y-67330424D02*
X64250596Y-67058615D01*
X66339235Y-47823343D02*
X66366220Y-47691765D01*
X79548968Y-35287933D02*
X79674284Y-35147746D01*
X62966869Y-60514983D02*
X62958986Y-60466913D01*
X76025209Y-42707833D02*
X76148323Y-42315051D01*
X62767056Y-59314645D02*
X62748311Y-59197342D01*
X103384603Y-44905290D02*
X103553815Y-45023823D01*
X99212557Y-79019509D02*
X98967016Y-79105851D01*
X108185969Y-72875074D02*
X108207942Y-73224905D01*
X65321476Y-71511859D02*
X65280289Y-71363363D01*
X109055904Y-67143702D02*
X109053256Y-67148953D01*
X82872121Y-43456722D02*
X83153104Y-43374427D01*
X70526304Y-43638819D02*
X70509931Y-43763648D01*
X83796139Y-79338878D02*
X83555607Y-79345022D01*
X69212625Y-79405607D02*
X68823640Y-79400820D01*
X107859846Y-53300780D02*
X107924368Y-53405408D01*
X106494849Y-50472989D02*
X106552672Y-50767969D01*
X89747272Y-41524808D02*
X89996047Y-41455739D01*
X103732504Y-45154960D02*
X103734227Y-45156741D01*
X70389812Y-44760792D02*
X70366727Y-44951611D01*
X62109271Y-55106361D02*
X62086692Y-54952966D01*
X65715085Y-72956367D02*
X65589720Y-72498376D01*
X66067582Y-74168886D02*
X66008456Y-73982075D01*
X108699426Y-67934265D02*
X108588079Y-68158537D01*
X77883259Y-79423946D02*
X77150989Y-79425363D01*
X84431685Y-43006470D02*
X84534227Y-42980338D01*
X91651357Y-41000761D02*
X91951515Y-40915514D01*
X62135161Y-55283065D02*
X62111712Y-55122335D01*
X110138841Y-61972773D02*
X110134887Y-62246300D01*
X63365792Y-62721351D02*
X63333442Y-62537134D01*
X103070965Y-77664057D02*
X102626623Y-77815394D01*
X109811211Y-64725296D02*
X109790465Y-64849949D01*
X61768700Y-52730844D02*
X61758857Y-52651529D01*
X66163059Y-74497124D02*
X66135375Y-74387664D01*
X105113240Y-76962415D02*
X104764683Y-77083005D01*
X109689790Y-65217259D02*
X109662278Y-65333319D01*
X66194711Y-74623154D02*
X66163965Y-74501747D01*
X80453487Y-36244231D02*
X80431159Y-36402413D01*
X108257153Y-75336369D02*
X108248636Y-75550736D01*
X79992272Y-41350908D02*
X79984431Y-41398995D01*
X109714495Y-57827577D02*
X109753610Y-57990310D01*
X108136416Y-69417883D02*
X108102034Y-69817403D01*
X78487318Y-37189434D02*
X78904558Y-36398124D01*
X79674284Y-35147746D02*
X79807888Y-35011275D01*
X71046435Y-39370357D02*
X71044917Y-39552267D01*
X107370436Y-52519598D02*
X107493194Y-52703103D01*
X80216443Y-44106451D02*
X80274426Y-44149981D01*
X96335764Y-40041867D02*
X96541063Y-40170504D01*
X62420122Y-57162184D02*
X62368285Y-56823304D01*
X107924368Y-53405408D02*
X107958013Y-53456081D01*
X75222389Y-45650893D02*
X75280682Y-45599196D01*
X87453911Y-42162437D02*
X87559227Y-42132532D01*
X62011713Y-54420958D02*
X62009271Y-54404980D01*
X62434227Y-49315431D02*
X62628163Y-49264786D01*
X105884227Y-76690343D02*
X105806550Y-76719378D01*
X106692356Y-51298866D02*
X106751634Y-51451033D01*
X110120706Y-62625739D02*
X110115941Y-62671253D01*
X69667934Y-79409902D02*
X69212625Y-79405607D01*
X107493194Y-52703103D02*
X107613837Y-52886786D01*
X67646668Y-79004118D02*
X67604787Y-78905143D01*
X80544173Y-79413712D02*
X79932476Y-79416950D01*
X62173000Y-55555614D02*
X62159231Y-55457051D01*
X80307167Y-37630325D02*
X80294815Y-37751514D01*
X63284996Y-62267620D02*
X63219575Y-61907950D01*
X79907190Y-34934264D02*
X80002805Y-34899963D01*
X84103819Y-79333321D02*
X83796139Y-79338878D01*
X62414730Y-49320591D02*
X62434227Y-49315431D01*
X107613837Y-52886786D02*
X107719363Y-53050995D01*
X61962063Y-54075013D02*
X61959271Y-54054290D01*
X76281685Y-41922167D02*
X76428595Y-41521958D01*
X63020012Y-60816544D02*
X62996066Y-60683420D01*
X108891591Y-55330037D02*
X108998416Y-55579160D01*
X108082803Y-70292706D02*
X108078543Y-70820561D01*
X80359008Y-37058857D02*
X80341786Y-37274865D01*
X109753610Y-57990310D02*
X109799154Y-58183938D01*
X84481932Y-79328318D02*
X84103819Y-79333321D01*
X107830657Y-76001347D02*
X107627141Y-76081106D01*
X61486460Y-49978038D02*
X61497746Y-49840492D01*
X99184227Y-42002648D02*
X99403958Y-42151682D01*
X61758359Y-49516902D02*
X61894334Y-49450617D01*
X80014588Y-43781211D02*
X80068150Y-43926104D01*
X70750912Y-79417024D02*
X70182914Y-79413707D01*
X79954146Y-43331424D02*
X79977355Y-43587222D01*
X99737087Y-42381821D02*
X99820241Y-42441945D01*
X85274459Y-42767482D02*
X85522209Y-42696357D01*
X109903167Y-58713462D02*
X109921317Y-58821644D01*
X110138586Y-61041679D02*
X110140655Y-61351736D01*
X80192191Y-39140956D02*
X80175418Y-39367261D01*
X109978514Y-59225252D02*
X110000171Y-59351853D01*
X62681431Y-58797448D02*
X62667105Y-58713462D01*
X63649184Y-64212563D02*
X63584632Y-63877142D01*
X70874197Y-40994867D02*
X70857351Y-41130604D01*
X79950455Y-41977826D02*
X79943728Y-42276440D01*
X84933763Y-79323839D02*
X84481932Y-79328318D01*
X65460369Y-72020099D02*
X65386592Y-71749209D01*
X67604787Y-78905143D02*
X67536902Y-78723150D01*
X62958986Y-60466913D02*
X62939255Y-60347559D01*
X70410842Y-44557841D02*
X70389812Y-44760792D01*
X80984227Y-44017733D02*
X81204559Y-43949704D01*
X101517865Y-78192992D02*
X101226004Y-78293820D01*
X68823640Y-79400820D02*
X68507633Y-79395537D01*
X70692122Y-42176816D02*
X70675145Y-42325750D01*
X61911713Y-53719578D02*
X61909271Y-53703600D01*
X97546943Y-79272656D02*
X97176944Y-79276637D01*
X70651252Y-47007039D02*
X70850488Y-46963635D01*
X61959271Y-54054290D02*
X61935174Y-53880307D01*
X79807888Y-35011275D02*
X79907190Y-34934264D01*
X71042214Y-39196972D02*
X71046435Y-39370357D01*
X110008600Y-59389793D02*
X110023407Y-59476848D01*
X109935784Y-64105925D02*
X109913147Y-64230257D01*
X108241347Y-73986188D02*
X108252147Y-74367721D01*
X86178319Y-42515331D02*
X86438298Y-42444265D01*
X66470909Y-47288714D02*
X66559298Y-46988390D01*
X65533430Y-72290187D02*
X65460369Y-72020099D01*
X67447135Y-78470667D02*
X67339609Y-78160218D01*
X101197521Y-43406114D02*
X101234227Y-43425404D01*
X65134227Y-48570963D02*
X65486049Y-48468178D01*
X80628464Y-35145768D02*
X80645520Y-35205683D01*
X101226004Y-78293820D02*
X100987109Y-78377284D01*
X107983678Y-75937797D02*
X107830657Y-76001347D01*
X75652568Y-79426808D02*
X74899723Y-79426832D01*
X62268929Y-56178997D02*
X62247404Y-56042089D01*
X100638286Y-78508143D02*
X100503392Y-78559184D01*
X70636465Y-42767112D02*
X70607971Y-43030781D01*
X109259227Y-56283679D02*
X109253119Y-56313951D01*
X66780848Y-46276161D02*
X66903083Y-45898661D01*
X78113307Y-37908385D02*
X78487318Y-37189434D01*
X67847149Y-79260684D02*
X67675675Y-79056493D01*
X95463746Y-39905369D02*
X95685733Y-39852782D01*
X98698688Y-41670673D02*
X98867788Y-41787474D01*
X62579291Y-58190445D02*
X62541694Y-57954671D01*
X82131498Y-43672904D02*
X82259227Y-43635592D01*
X63465865Y-63256179D02*
X63418506Y-63006255D01*
X70318099Y-45974434D02*
X70322740Y-46250394D01*
X106407839Y-49792555D02*
X106408330Y-49795907D01*
X87543975Y-79310560D02*
X86764419Y-79313245D01*
X106393092Y-49664339D02*
X106407839Y-49792555D01*
%TD*%
M02*
