%TF.GenerationSoftware,KiCad,Pcbnew,6.0.2+dfsg-1*%
%TF.CreationDate,2022-10-12T23:29:13+02:00*%
%TF.ProjectId,project_satan,70726f6a-6563-4745-9f73-6174616e2e6b,rev?*%
%TF.SameCoordinates,Original*%
%TF.FileFunction,Soldermask,Bot*%
%TF.FilePolarity,Negative*%
%FSLAX46Y46*%
G04 Gerber Fmt 4.6, Leading zero omitted, Abs format (unit mm)*
G04 Created by KiCad (PCBNEW 6.0.2+dfsg-1) date 2022-10-12 23:29:13*
%MOMM*%
%LPD*%
G01*
G04 APERTURE LIST*
G04 Aperture macros list*
%AMRoundRect*
0 Rectangle with rounded corners*
0 $1 Rounding radius*
0 $2 $3 $4 $5 $6 $7 $8 $9 X,Y pos of 4 corners*
0 Add a 4 corners polygon primitive as box body*
4,1,4,$2,$3,$4,$5,$6,$7,$8,$9,$2,$3,0*
0 Add four circle primitives for the rounded corners*
1,1,$1+$1,$2,$3*
1,1,$1+$1,$4,$5*
1,1,$1+$1,$6,$7*
1,1,$1+$1,$8,$9*
0 Add four rect primitives between the rounded corners*
20,1,$1+$1,$2,$3,$4,$5,0*
20,1,$1+$1,$4,$5,$6,$7,0*
20,1,$1+$1,$6,$7,$8,$9,0*
20,1,$1+$1,$8,$9,$2,$3,0*%
%AMRotRect*
0 Rectangle, with rotation*
0 The origin of the aperture is its center*
0 $1 length*
0 $2 width*
0 $3 Rotation angle, in degrees counterclockwise*
0 Add horizontal line*
21,1,$1,$2,0,0,$3*%
G04 Aperture macros list end*
%ADD10C,0.150000*%
%ADD11C,2.575000*%
%ADD12C,0.010000*%
%ADD13C,1.000000*%
%ADD14RoundRect,0.225000X-0.250000X0.225000X-0.250000X-0.225000X0.250000X-0.225000X0.250000X0.225000X0*%
%ADD15RoundRect,0.035000X0.665000X0.315000X-0.665000X0.315000X-0.665000X-0.315000X0.665000X-0.315000X0*%
%ADD16C,0.900000*%
%ADD17RotRect,1.000000X0.800000X325.000000*%
%ADD18RotRect,0.700000X1.500000X325.000000*%
%ADD19RoundRect,0.150000X0.150000X-0.825000X0.150000X0.825000X-0.150000X0.825000X-0.150000X-0.825000X0*%
%ADD20RoundRect,0.200000X-0.053033X0.335876X-0.335876X0.053033X0.053033X-0.335876X0.335876X-0.053033X0*%
%ADD21RoundRect,0.225000X0.335876X0.017678X0.017678X0.335876X-0.335876X-0.017678X-0.017678X-0.335876X0*%
%ADD22R,3.000000X4.000000*%
G04 APERTURE END LIST*
D10*
X69250000Y-64250000D02*
X72750000Y-64250000D01*
X72750000Y-64250000D02*
X72750000Y-66750000D01*
X72750000Y-66750000D02*
X69250000Y-66750000D01*
X69250000Y-66750000D02*
X69250000Y-64250000D01*
G36*
X69250000Y-64250000D02*
G01*
X72750000Y-64250000D01*
X72750000Y-66750000D01*
X69250000Y-66750000D01*
X69250000Y-64250000D01*
G37*
D11*
X87287500Y-56500000D02*
G75*
G03*
X87287500Y-56500000I-1287500J0D01*
G01*
D10*
X73000000Y-53000000D02*
X93000000Y-53000000D01*
X93000000Y-53000000D02*
X93000000Y-48000000D01*
X93000000Y-48000000D02*
X73000000Y-48000000D01*
X73000000Y-48000000D02*
X73000000Y-53000000D01*
G36*
X73000000Y-53000000D02*
G01*
X93000000Y-53000000D01*
X93000000Y-48000000D01*
X73000000Y-48000000D01*
X73000000Y-53000000D01*
G37*
X87750000Y-61250000D02*
X91250000Y-61250000D01*
X91250000Y-61250000D02*
X91250000Y-63750000D01*
X91250000Y-63750000D02*
X87750000Y-63750000D01*
X87750000Y-63750000D02*
X87750000Y-61250000D01*
G36*
X87750000Y-61250000D02*
G01*
X91250000Y-61250000D01*
X91250000Y-63750000D01*
X87750000Y-63750000D01*
X87750000Y-61250000D01*
G37*
D12*
%TO.C,G\u002A\u002A\u002A*%
X67728000Y-50815500D02*
X67410000Y-50815500D01*
X67410000Y-50815500D02*
X67410000Y-51133500D01*
X67410000Y-51133500D02*
X67728000Y-51133500D01*
X67728000Y-51133500D02*
X67728000Y-50815500D01*
G36*
X67728000Y-50815500D02*
G01*
X67410000Y-50815500D01*
X67410000Y-51133500D01*
X67728000Y-51133500D01*
X67728000Y-50815500D01*
G37*
X67092000Y-55267500D02*
X66774000Y-55267500D01*
X66774000Y-55267500D02*
X66774000Y-55585500D01*
X66774000Y-55585500D02*
X67092000Y-55585500D01*
X67092000Y-55585500D02*
X67092000Y-55267500D01*
G36*
X67092000Y-55267500D02*
G01*
X66774000Y-55267500D01*
X66774000Y-55585500D01*
X67092000Y-55585500D01*
X67092000Y-55267500D01*
G37*
X71544000Y-52723500D02*
X71226000Y-52723500D01*
X71226000Y-52723500D02*
X71226000Y-53041500D01*
X71226000Y-53041500D02*
X71544000Y-53041500D01*
X71544000Y-53041500D02*
X71544000Y-52723500D01*
G36*
X71544000Y-52723500D02*
G01*
X71226000Y-52723500D01*
X71226000Y-53041500D01*
X71544000Y-53041500D01*
X71544000Y-52723500D01*
G37*
X66774000Y-54949500D02*
X66456000Y-54949500D01*
X66456000Y-54949500D02*
X66456000Y-55267500D01*
X66456000Y-55267500D02*
X66774000Y-55267500D01*
X66774000Y-55267500D02*
X66774000Y-54949500D01*
G36*
X66774000Y-54949500D02*
G01*
X66456000Y-54949500D01*
X66456000Y-55267500D01*
X66774000Y-55267500D01*
X66774000Y-54949500D01*
G37*
X66775385Y-52405369D02*
X66457385Y-52405369D01*
X66457385Y-52405369D02*
X66457385Y-52723369D01*
X66457385Y-52723369D02*
X66775385Y-52723369D01*
X66775385Y-52723369D02*
X66775385Y-52405369D01*
G36*
X66775385Y-52405369D02*
G01*
X66457385Y-52405369D01*
X66457385Y-52723369D01*
X66775385Y-52723369D01*
X66775385Y-52405369D01*
G37*
X66774000Y-51133500D02*
X66456000Y-51133500D01*
X66456000Y-51133500D02*
X66456000Y-51451500D01*
X66456000Y-51451500D02*
X66774000Y-51451500D01*
X66774000Y-51451500D02*
X66774000Y-51133500D01*
G36*
X66774000Y-51133500D02*
G01*
X66456000Y-51133500D01*
X66456000Y-51451500D01*
X66774000Y-51451500D01*
X66774000Y-51133500D01*
G37*
X71226000Y-54313500D02*
X70908000Y-54313500D01*
X70908000Y-54313500D02*
X70908000Y-54631500D01*
X70908000Y-54631500D02*
X71226000Y-54631500D01*
X71226000Y-54631500D02*
X71226000Y-54313500D01*
G36*
X71226000Y-54313500D02*
G01*
X70908000Y-54313500D01*
X70908000Y-54631500D01*
X71226000Y-54631500D01*
X71226000Y-54313500D01*
G37*
X67728000Y-51451500D02*
X67410000Y-51451500D01*
X67410000Y-51451500D02*
X67410000Y-51769500D01*
X67410000Y-51769500D02*
X67728000Y-51769500D01*
X67728000Y-51769500D02*
X67728000Y-51451500D01*
G36*
X67728000Y-51451500D02*
G01*
X67410000Y-51451500D01*
X67410000Y-51769500D01*
X67728000Y-51769500D01*
X67728000Y-51451500D01*
G37*
X67092000Y-51769500D02*
X66774000Y-51769500D01*
X66774000Y-51769500D02*
X66774000Y-52087500D01*
X66774000Y-52087500D02*
X67092000Y-52087500D01*
X67092000Y-52087500D02*
X67092000Y-51769500D01*
G36*
X67092000Y-51769500D02*
G01*
X66774000Y-51769500D01*
X66774000Y-52087500D01*
X67092000Y-52087500D01*
X67092000Y-51769500D01*
G37*
X71226000Y-52405500D02*
X70908000Y-52405500D01*
X70908000Y-52405500D02*
X70908000Y-52723500D01*
X70908000Y-52723500D02*
X71226000Y-52723500D01*
X71226000Y-52723500D02*
X71226000Y-52405500D01*
G36*
X71226000Y-52405500D02*
G01*
X70908000Y-52405500D01*
X70908000Y-52723500D01*
X71226000Y-52723500D01*
X71226000Y-52405500D01*
G37*
X66774000Y-51769500D02*
X66456000Y-51769500D01*
X66456000Y-51769500D02*
X66456000Y-52087500D01*
X66456000Y-52087500D02*
X66774000Y-52087500D01*
X66774000Y-52087500D02*
X66774000Y-51769500D01*
G36*
X66774000Y-51769500D02*
G01*
X66456000Y-51769500D01*
X66456000Y-52087500D01*
X66774000Y-52087500D01*
X66774000Y-51769500D01*
G37*
X67092000Y-53359500D02*
X66774000Y-53359500D01*
X66774000Y-53359500D02*
X66774000Y-53677500D01*
X66774000Y-53677500D02*
X67092000Y-53677500D01*
X67092000Y-53677500D02*
X67092000Y-53359500D01*
G36*
X67092000Y-53359500D02*
G01*
X66774000Y-53359500D01*
X66774000Y-53677500D01*
X67092000Y-53677500D01*
X67092000Y-53359500D01*
G37*
X67092000Y-51451500D02*
X66774000Y-51451500D01*
X66774000Y-51451500D02*
X66774000Y-51769500D01*
X66774000Y-51769500D02*
X67092000Y-51769500D01*
X67092000Y-51769500D02*
X67092000Y-51451500D01*
G36*
X67092000Y-51451500D02*
G01*
X66774000Y-51451500D01*
X66774000Y-51769500D01*
X67092000Y-51769500D01*
X67092000Y-51451500D01*
G37*
X67092000Y-52087500D02*
X66774000Y-52087500D01*
X66774000Y-52087500D02*
X66774000Y-52405500D01*
X66774000Y-52405500D02*
X67092000Y-52405500D01*
X67092000Y-52405500D02*
X67092000Y-52087500D01*
G36*
X67092000Y-52087500D02*
G01*
X66774000Y-52087500D01*
X66774000Y-52405500D01*
X67092000Y-52405500D01*
X67092000Y-52087500D01*
G37*
X67728000Y-52723500D02*
X67410000Y-52723500D01*
X67410000Y-52723500D02*
X67410000Y-53041500D01*
X67410000Y-53041500D02*
X67728000Y-53041500D01*
X67728000Y-53041500D02*
X67728000Y-52723500D01*
G36*
X67728000Y-52723500D02*
G01*
X67410000Y-52723500D01*
X67410000Y-53041500D01*
X67728000Y-53041500D01*
X67728000Y-52723500D01*
G37*
X66139385Y-51769500D02*
X65821385Y-51769500D01*
X65821385Y-51769500D02*
X65821385Y-52087500D01*
X65821385Y-52087500D02*
X66139385Y-52087500D01*
X66139385Y-52087500D02*
X66139385Y-51769500D01*
G36*
X66139385Y-51769500D02*
G01*
X65821385Y-51769500D01*
X65821385Y-52087500D01*
X66139385Y-52087500D01*
X66139385Y-51769500D01*
G37*
X67093385Y-52723369D02*
X66775385Y-52723369D01*
X66775385Y-52723369D02*
X66775385Y-53041369D01*
X66775385Y-53041369D02*
X67093385Y-53041369D01*
X67093385Y-53041369D02*
X67093385Y-52723369D01*
G36*
X67093385Y-52723369D02*
G01*
X66775385Y-52723369D01*
X66775385Y-53041369D01*
X67093385Y-53041369D01*
X67093385Y-52723369D01*
G37*
X71862000Y-53041500D02*
X71544000Y-53041500D01*
X71544000Y-53041500D02*
X71544000Y-53359500D01*
X71544000Y-53359500D02*
X71862000Y-53359500D01*
X71862000Y-53359500D02*
X71862000Y-53041500D01*
G36*
X71862000Y-53041500D02*
G01*
X71544000Y-53041500D01*
X71544000Y-53359500D01*
X71862000Y-53359500D01*
X71862000Y-53041500D01*
G37*
X67728000Y-51769500D02*
X67410000Y-51769500D01*
X67410000Y-51769500D02*
X67410000Y-52087500D01*
X67410000Y-52087500D02*
X67728000Y-52087500D01*
X67728000Y-52087500D02*
X67728000Y-51769500D01*
G36*
X67728000Y-51769500D02*
G01*
X67410000Y-51769500D01*
X67410000Y-52087500D01*
X67728000Y-52087500D01*
X67728000Y-51769500D01*
G37*
X67092000Y-53677500D02*
X66774000Y-53677500D01*
X66774000Y-53677500D02*
X66774000Y-53995500D01*
X66774000Y-53995500D02*
X67092000Y-53995500D01*
X67092000Y-53995500D02*
X67092000Y-53677500D01*
G36*
X67092000Y-53677500D02*
G01*
X66774000Y-53677500D01*
X66774000Y-53995500D01*
X67092000Y-53995500D01*
X67092000Y-53677500D01*
G37*
X71862000Y-54313500D02*
X71544000Y-54313500D01*
X71544000Y-54313500D02*
X71544000Y-54631500D01*
X71544000Y-54631500D02*
X71862000Y-54631500D01*
X71862000Y-54631500D02*
X71862000Y-54313500D01*
G36*
X71862000Y-54313500D02*
G01*
X71544000Y-54313500D01*
X71544000Y-54631500D01*
X71862000Y-54631500D01*
X71862000Y-54313500D01*
G37*
X71544000Y-55267500D02*
X71226000Y-55267500D01*
X71226000Y-55267500D02*
X71226000Y-55585500D01*
X71226000Y-55585500D02*
X71544000Y-55585500D01*
X71544000Y-55585500D02*
X71544000Y-55267500D01*
G36*
X71544000Y-55267500D02*
G01*
X71226000Y-55267500D01*
X71226000Y-55585500D01*
X71544000Y-55585500D01*
X71544000Y-55267500D01*
G37*
X68046000Y-51769500D02*
X67728000Y-51769500D01*
X67728000Y-51769500D02*
X67728000Y-52087500D01*
X67728000Y-52087500D02*
X68046000Y-52087500D01*
X68046000Y-52087500D02*
X68046000Y-51769500D01*
G36*
X68046000Y-51769500D02*
G01*
X67728000Y-51769500D01*
X67728000Y-52087500D01*
X68046000Y-52087500D01*
X68046000Y-51769500D01*
G37*
X71226000Y-53041500D02*
X70908000Y-53041500D01*
X70908000Y-53041500D02*
X70908000Y-53359500D01*
X70908000Y-53359500D02*
X71226000Y-53359500D01*
X71226000Y-53359500D02*
X71226000Y-53041500D01*
G36*
X71226000Y-53041500D02*
G01*
X70908000Y-53041500D01*
X70908000Y-53359500D01*
X71226000Y-53359500D01*
X71226000Y-53041500D01*
G37*
X70908000Y-53041500D02*
X70590000Y-53041500D01*
X70590000Y-53041500D02*
X70590000Y-53359500D01*
X70590000Y-53359500D02*
X70908000Y-53359500D01*
X70908000Y-53359500D02*
X70908000Y-53041500D01*
G36*
X70908000Y-53041500D02*
G01*
X70590000Y-53041500D01*
X70590000Y-53359500D01*
X70908000Y-53359500D01*
X70908000Y-53041500D01*
G37*
X66456000Y-52723500D02*
X66138000Y-52723500D01*
X66138000Y-52723500D02*
X66138000Y-53041500D01*
X66138000Y-53041500D02*
X66456000Y-53041500D01*
X66456000Y-53041500D02*
X66456000Y-52723500D01*
G36*
X66456000Y-52723500D02*
G01*
X66138000Y-52723500D01*
X66138000Y-53041500D01*
X66456000Y-53041500D01*
X66456000Y-52723500D01*
G37*
X71862000Y-54949500D02*
X71544000Y-54949500D01*
X71544000Y-54949500D02*
X71544000Y-55267500D01*
X71544000Y-55267500D02*
X71862000Y-55267500D01*
X71862000Y-55267500D02*
X71862000Y-54949500D01*
G36*
X71862000Y-54949500D02*
G01*
X71544000Y-54949500D01*
X71544000Y-55267500D01*
X71862000Y-55267500D01*
X71862000Y-54949500D01*
G37*
X71544000Y-53359500D02*
X71226000Y-53359500D01*
X71226000Y-53359500D02*
X71226000Y-53677500D01*
X71226000Y-53677500D02*
X71544000Y-53677500D01*
X71544000Y-53677500D02*
X71544000Y-53359500D01*
G36*
X71544000Y-53359500D02*
G01*
X71226000Y-53359500D01*
X71226000Y-53677500D01*
X71544000Y-53677500D01*
X71544000Y-53359500D01*
G37*
X66457385Y-52087369D02*
X66139385Y-52087369D01*
X66139385Y-52087369D02*
X66139385Y-52405369D01*
X66139385Y-52405369D02*
X66457385Y-52405369D01*
X66457385Y-52405369D02*
X66457385Y-52087369D01*
G36*
X66457385Y-52087369D02*
G01*
X66139385Y-52087369D01*
X66139385Y-52405369D01*
X66457385Y-52405369D01*
X66457385Y-52087369D01*
G37*
X66774000Y-54313500D02*
X66456000Y-54313500D01*
X66456000Y-54313500D02*
X66456000Y-54631500D01*
X66456000Y-54631500D02*
X66774000Y-54631500D01*
X66774000Y-54631500D02*
X66774000Y-54313500D01*
G36*
X66774000Y-54313500D02*
G01*
X66456000Y-54313500D01*
X66456000Y-54631500D01*
X66774000Y-54631500D01*
X66774000Y-54313500D01*
G37*
X69000000Y-50815500D02*
X68682000Y-50815500D01*
X68682000Y-50815500D02*
X68682000Y-51133500D01*
X68682000Y-51133500D02*
X69000000Y-51133500D01*
X69000000Y-51133500D02*
X69000000Y-50815500D01*
G36*
X69000000Y-50815500D02*
G01*
X68682000Y-50815500D01*
X68682000Y-51133500D01*
X69000000Y-51133500D01*
X69000000Y-50815500D01*
G37*
X71862000Y-53677500D02*
X71544000Y-53677500D01*
X71544000Y-53677500D02*
X71544000Y-53995500D01*
X71544000Y-53995500D02*
X71862000Y-53995500D01*
X71862000Y-53995500D02*
X71862000Y-53677500D01*
G36*
X71862000Y-53677500D02*
G01*
X71544000Y-53677500D01*
X71544000Y-53995500D01*
X71862000Y-53995500D01*
X71862000Y-53677500D01*
G37*
X71226000Y-53359500D02*
X70908000Y-53359500D01*
X70908000Y-53359500D02*
X70908000Y-53677500D01*
X70908000Y-53677500D02*
X71226000Y-53677500D01*
X71226000Y-53677500D02*
X71226000Y-53359500D01*
G36*
X71226000Y-53359500D02*
G01*
X70908000Y-53359500D01*
X70908000Y-53677500D01*
X71226000Y-53677500D01*
X71226000Y-53359500D01*
G37*
X67728000Y-56221500D02*
X67410000Y-56221500D01*
X67410000Y-56221500D02*
X67410000Y-56539500D01*
X67410000Y-56539500D02*
X67728000Y-56539500D01*
X67728000Y-56539500D02*
X67728000Y-56221500D01*
G36*
X67728000Y-56221500D02*
G01*
X67410000Y-56221500D01*
X67410000Y-56539500D01*
X67728000Y-56539500D01*
X67728000Y-56221500D01*
G37*
X67410000Y-52723500D02*
X67092000Y-52723500D01*
X67092000Y-52723500D02*
X67092000Y-53041500D01*
X67092000Y-53041500D02*
X67410000Y-53041500D01*
X67410000Y-53041500D02*
X67410000Y-52723500D01*
G36*
X67410000Y-52723500D02*
G01*
X67092000Y-52723500D01*
X67092000Y-53041500D01*
X67410000Y-53041500D01*
X67410000Y-52723500D01*
G37*
X70272000Y-51451500D02*
X69954000Y-51451500D01*
X69954000Y-51451500D02*
X69954000Y-51769500D01*
X69954000Y-51769500D02*
X70272000Y-51769500D01*
X70272000Y-51769500D02*
X70272000Y-51451500D01*
G36*
X70272000Y-51451500D02*
G01*
X69954000Y-51451500D01*
X69954000Y-51769500D01*
X70272000Y-51769500D01*
X70272000Y-51451500D01*
G37*
X67410000Y-52087500D02*
X67092000Y-52087500D01*
X67092000Y-52087500D02*
X67092000Y-52405500D01*
X67092000Y-52405500D02*
X67410000Y-52405500D01*
X67410000Y-52405500D02*
X67410000Y-52087500D01*
G36*
X67410000Y-52087500D02*
G01*
X67092000Y-52087500D01*
X67092000Y-52405500D01*
X67410000Y-52405500D01*
X67410000Y-52087500D01*
G37*
X67728000Y-52405500D02*
X67410000Y-52405500D01*
X67410000Y-52405500D02*
X67410000Y-52723500D01*
X67410000Y-52723500D02*
X67728000Y-52723500D01*
X67728000Y-52723500D02*
X67728000Y-52405500D01*
G36*
X67728000Y-52405500D02*
G01*
X67410000Y-52405500D01*
X67410000Y-52723500D01*
X67728000Y-52723500D01*
X67728000Y-52405500D01*
G37*
X71226000Y-55585500D02*
X70908000Y-55585500D01*
X70908000Y-55585500D02*
X70908000Y-55903500D01*
X70908000Y-55903500D02*
X71226000Y-55903500D01*
X71226000Y-55903500D02*
X71226000Y-55585500D01*
G36*
X71226000Y-55585500D02*
G01*
X70908000Y-55585500D01*
X70908000Y-55903500D01*
X71226000Y-55903500D01*
X71226000Y-55585500D01*
G37*
X67410000Y-54631500D02*
X67092000Y-54631500D01*
X67092000Y-54631500D02*
X67092000Y-54949500D01*
X67092000Y-54949500D02*
X67410000Y-54949500D01*
X67410000Y-54949500D02*
X67410000Y-54631500D01*
G36*
X67410000Y-54631500D02*
G01*
X67092000Y-54631500D01*
X67092000Y-54949500D01*
X67410000Y-54949500D01*
X67410000Y-54631500D01*
G37*
X66774000Y-53041500D02*
X66456000Y-53041500D01*
X66456000Y-53041500D02*
X66456000Y-53359500D01*
X66456000Y-53359500D02*
X66774000Y-53359500D01*
X66774000Y-53359500D02*
X66774000Y-53041500D01*
G36*
X66774000Y-53041500D02*
G01*
X66456000Y-53041500D01*
X66456000Y-53359500D01*
X66774000Y-53359500D01*
X66774000Y-53041500D01*
G37*
X71544000Y-54631500D02*
X71226000Y-54631500D01*
X71226000Y-54631500D02*
X71226000Y-54949500D01*
X71226000Y-54949500D02*
X71544000Y-54949500D01*
X71544000Y-54949500D02*
X71544000Y-54631500D01*
G36*
X71544000Y-54631500D02*
G01*
X71226000Y-54631500D01*
X71226000Y-54949500D01*
X71544000Y-54949500D01*
X71544000Y-54631500D01*
G37*
X71226000Y-55267500D02*
X70908000Y-55267500D01*
X70908000Y-55267500D02*
X70908000Y-55585500D01*
X70908000Y-55585500D02*
X71226000Y-55585500D01*
X71226000Y-55585500D02*
X71226000Y-55267500D01*
G36*
X71226000Y-55267500D02*
G01*
X70908000Y-55267500D01*
X70908000Y-55585500D01*
X71226000Y-55585500D01*
X71226000Y-55267500D01*
G37*
X67410000Y-51769500D02*
X67092000Y-51769500D01*
X67092000Y-51769500D02*
X67092000Y-52087500D01*
X67092000Y-52087500D02*
X67410000Y-52087500D01*
X67410000Y-52087500D02*
X67410000Y-51769500D01*
G36*
X67410000Y-51769500D02*
G01*
X67092000Y-51769500D01*
X67092000Y-52087500D01*
X67410000Y-52087500D01*
X67410000Y-51769500D01*
G37*
X68046000Y-51451500D02*
X67728000Y-51451500D01*
X67728000Y-51451500D02*
X67728000Y-51769500D01*
X67728000Y-51769500D02*
X68046000Y-51769500D01*
X68046000Y-51769500D02*
X68046000Y-51451500D01*
G36*
X68046000Y-51451500D02*
G01*
X67728000Y-51451500D01*
X67728000Y-51769500D01*
X68046000Y-51769500D01*
X68046000Y-51451500D01*
G37*
X67410000Y-51133500D02*
X67092000Y-51133500D01*
X67092000Y-51133500D02*
X67092000Y-51451500D01*
X67092000Y-51451500D02*
X67410000Y-51451500D01*
X67410000Y-51451500D02*
X67410000Y-51133500D01*
G36*
X67410000Y-51133500D02*
G01*
X67092000Y-51133500D01*
X67092000Y-51451500D01*
X67410000Y-51451500D01*
X67410000Y-51133500D01*
G37*
X71226000Y-54631500D02*
X70908000Y-54631500D01*
X70908000Y-54631500D02*
X70908000Y-54949500D01*
X70908000Y-54949500D02*
X71226000Y-54949500D01*
X71226000Y-54949500D02*
X71226000Y-54631500D01*
G36*
X71226000Y-54631500D02*
G01*
X70908000Y-54631500D01*
X70908000Y-54949500D01*
X71226000Y-54949500D01*
X71226000Y-54631500D01*
G37*
X67410000Y-54949500D02*
X67092000Y-54949500D01*
X67092000Y-54949500D02*
X67092000Y-55267500D01*
X67092000Y-55267500D02*
X67410000Y-55267500D01*
X67410000Y-55267500D02*
X67410000Y-54949500D01*
G36*
X67410000Y-54949500D02*
G01*
X67092000Y-54949500D01*
X67092000Y-55267500D01*
X67410000Y-55267500D01*
X67410000Y-54949500D01*
G37*
X67410000Y-54313500D02*
X67092000Y-54313500D01*
X67092000Y-54313500D02*
X67092000Y-54631500D01*
X67092000Y-54631500D02*
X67410000Y-54631500D01*
X67410000Y-54631500D02*
X67410000Y-54313500D01*
G36*
X67410000Y-54313500D02*
G01*
X67092000Y-54313500D01*
X67092000Y-54631500D01*
X67410000Y-54631500D01*
X67410000Y-54313500D01*
G37*
X67410000Y-55267500D02*
X67092000Y-55267500D01*
X67092000Y-55267500D02*
X67092000Y-55585500D01*
X67092000Y-55585500D02*
X67410000Y-55585500D01*
X67410000Y-55585500D02*
X67410000Y-55267500D01*
G36*
X67410000Y-55267500D02*
G01*
X67092000Y-55267500D01*
X67092000Y-55585500D01*
X67410000Y-55585500D01*
X67410000Y-55267500D01*
G37*
X69636000Y-51451500D02*
X69318000Y-51451500D01*
X69318000Y-51451500D02*
X69318000Y-51769500D01*
X69318000Y-51769500D02*
X69636000Y-51769500D01*
X69636000Y-51769500D02*
X69636000Y-51451500D01*
G36*
X69636000Y-51451500D02*
G01*
X69318000Y-51451500D01*
X69318000Y-51769500D01*
X69636000Y-51769500D01*
X69636000Y-51451500D01*
G37*
X71226000Y-54949500D02*
X70908000Y-54949500D01*
X70908000Y-54949500D02*
X70908000Y-55267500D01*
X70908000Y-55267500D02*
X71226000Y-55267500D01*
X71226000Y-55267500D02*
X71226000Y-54949500D01*
G36*
X71226000Y-54949500D02*
G01*
X70908000Y-54949500D01*
X70908000Y-55267500D01*
X71226000Y-55267500D01*
X71226000Y-54949500D01*
G37*
X71544000Y-53995500D02*
X71226000Y-53995500D01*
X71226000Y-53995500D02*
X71226000Y-54313500D01*
X71226000Y-54313500D02*
X71544000Y-54313500D01*
X71544000Y-54313500D02*
X71544000Y-53995500D01*
G36*
X71544000Y-53995500D02*
G01*
X71226000Y-53995500D01*
X71226000Y-54313500D01*
X71544000Y-54313500D01*
X71544000Y-53995500D01*
G37*
X67092000Y-53995500D02*
X66774000Y-53995500D01*
X66774000Y-53995500D02*
X66774000Y-54313500D01*
X66774000Y-54313500D02*
X67092000Y-54313500D01*
X67092000Y-54313500D02*
X67092000Y-53995500D01*
G36*
X67092000Y-53995500D02*
G01*
X66774000Y-53995500D01*
X66774000Y-54313500D01*
X67092000Y-54313500D01*
X67092000Y-53995500D01*
G37*
X67411385Y-53359369D02*
X67093385Y-53359369D01*
X67093385Y-53359369D02*
X67093385Y-53677369D01*
X67093385Y-53677369D02*
X67411385Y-53677369D01*
X67411385Y-53677369D02*
X67411385Y-53359369D01*
G36*
X67411385Y-53359369D02*
G01*
X67093385Y-53359369D01*
X67093385Y-53677369D01*
X67411385Y-53677369D01*
X67411385Y-53359369D01*
G37*
X68364000Y-51451500D02*
X68046000Y-51451500D01*
X68046000Y-51451500D02*
X68046000Y-51769500D01*
X68046000Y-51769500D02*
X68364000Y-51769500D01*
X68364000Y-51769500D02*
X68364000Y-51451500D01*
G36*
X68364000Y-51451500D02*
G01*
X68046000Y-51451500D01*
X68046000Y-51769500D01*
X68364000Y-51769500D01*
X68364000Y-51451500D01*
G37*
X67092000Y-54631500D02*
X66774000Y-54631500D01*
X66774000Y-54631500D02*
X66774000Y-54949500D01*
X66774000Y-54949500D02*
X67092000Y-54949500D01*
X67092000Y-54949500D02*
X67092000Y-54631500D01*
G36*
X67092000Y-54631500D02*
G01*
X66774000Y-54631500D01*
X66774000Y-54949500D01*
X67092000Y-54949500D01*
X67092000Y-54631500D01*
G37*
X66456000Y-51451500D02*
X66138000Y-51451500D01*
X66138000Y-51451500D02*
X66138000Y-51769500D01*
X66138000Y-51769500D02*
X66456000Y-51769500D01*
X66456000Y-51769500D02*
X66456000Y-51451500D01*
G36*
X66456000Y-51451500D02*
G01*
X66138000Y-51451500D01*
X66138000Y-51769500D01*
X66456000Y-51769500D01*
X66456000Y-51451500D01*
G37*
X70908000Y-52723500D02*
X70590000Y-52723500D01*
X70590000Y-52723500D02*
X70590000Y-53041500D01*
X70590000Y-53041500D02*
X70908000Y-53041500D01*
X70908000Y-53041500D02*
X70908000Y-52723500D01*
G36*
X70908000Y-52723500D02*
G01*
X70590000Y-52723500D01*
X70590000Y-53041500D01*
X70908000Y-53041500D01*
X70908000Y-52723500D01*
G37*
X70908000Y-52087500D02*
X70590000Y-52087500D01*
X70590000Y-52087500D02*
X70590000Y-52405500D01*
X70590000Y-52405500D02*
X70908000Y-52405500D01*
X70908000Y-52405500D02*
X70908000Y-52087500D01*
G36*
X70908000Y-52087500D02*
G01*
X70590000Y-52087500D01*
X70590000Y-52405500D01*
X70908000Y-52405500D01*
X70908000Y-52087500D01*
G37*
X68046000Y-51133500D02*
X67728000Y-51133500D01*
X67728000Y-51133500D02*
X67728000Y-51451500D01*
X67728000Y-51451500D02*
X68046000Y-51451500D01*
X68046000Y-51451500D02*
X68046000Y-51133500D01*
G36*
X68046000Y-51133500D02*
G01*
X67728000Y-51133500D01*
X67728000Y-51451500D01*
X68046000Y-51451500D01*
X68046000Y-51133500D01*
G37*
X67410000Y-52405500D02*
X67092000Y-52405500D01*
X67092000Y-52405500D02*
X67092000Y-52723500D01*
X67092000Y-52723500D02*
X67410000Y-52723500D01*
X67410000Y-52723500D02*
X67410000Y-52405500D01*
G36*
X67410000Y-52405500D02*
G01*
X67092000Y-52405500D01*
X67092000Y-52723500D01*
X67410000Y-52723500D01*
X67410000Y-52405500D01*
G37*
X69954000Y-51133500D02*
X69636000Y-51133500D01*
X69636000Y-51133500D02*
X69636000Y-51451500D01*
X69636000Y-51451500D02*
X69954000Y-51451500D01*
X69954000Y-51451500D02*
X69954000Y-51133500D01*
G36*
X69954000Y-51133500D02*
G01*
X69636000Y-51133500D01*
X69636000Y-51451500D01*
X69954000Y-51451500D01*
X69954000Y-51133500D01*
G37*
X69318000Y-51451500D02*
X69000000Y-51451500D01*
X69000000Y-51451500D02*
X69000000Y-51769500D01*
X69000000Y-51769500D02*
X69318000Y-51769500D01*
X69318000Y-51769500D02*
X69318000Y-51451500D01*
G36*
X69318000Y-51451500D02*
G01*
X69000000Y-51451500D01*
X69000000Y-51769500D01*
X69318000Y-51769500D01*
X69318000Y-51451500D01*
G37*
X67092000Y-52405500D02*
X66774000Y-52405500D01*
X66774000Y-52405500D02*
X66774000Y-52723500D01*
X66774000Y-52723500D02*
X67092000Y-52723500D01*
X67092000Y-52723500D02*
X67092000Y-52405500D01*
G36*
X67092000Y-52405500D02*
G01*
X66774000Y-52405500D01*
X66774000Y-52723500D01*
X67092000Y-52723500D01*
X67092000Y-52405500D01*
G37*
X69000000Y-51451500D02*
X68682000Y-51451500D01*
X68682000Y-51451500D02*
X68682000Y-51769500D01*
X68682000Y-51769500D02*
X69000000Y-51769500D01*
X69000000Y-51769500D02*
X69000000Y-51451500D01*
G36*
X69000000Y-51451500D02*
G01*
X68682000Y-51451500D01*
X68682000Y-51769500D01*
X69000000Y-51769500D01*
X69000000Y-51451500D01*
G37*
X68682000Y-51133500D02*
X68364000Y-51133500D01*
X68364000Y-51133500D02*
X68364000Y-51451500D01*
X68364000Y-51451500D02*
X68682000Y-51451500D01*
X68682000Y-51451500D02*
X68682000Y-51133500D01*
G36*
X68682000Y-51133500D02*
G01*
X68364000Y-51133500D01*
X68364000Y-51451500D01*
X68682000Y-51451500D01*
X68682000Y-51133500D01*
G37*
X66138000Y-51133500D02*
X65820000Y-51133500D01*
X65820000Y-51133500D02*
X65820000Y-51451500D01*
X65820000Y-51451500D02*
X66138000Y-51451500D01*
X66138000Y-51451500D02*
X66138000Y-51133500D01*
G36*
X66138000Y-51133500D02*
G01*
X65820000Y-51133500D01*
X65820000Y-51451500D01*
X66138000Y-51451500D01*
X66138000Y-51133500D01*
G37*
X68364000Y-56539500D02*
X68046000Y-56539500D01*
X68046000Y-56539500D02*
X68046000Y-56857500D01*
X68046000Y-56857500D02*
X68364000Y-56857500D01*
X68364000Y-56857500D02*
X68364000Y-56539500D01*
G36*
X68364000Y-56539500D02*
G01*
X68046000Y-56539500D01*
X68046000Y-56857500D01*
X68364000Y-56857500D01*
X68364000Y-56539500D01*
G37*
X69318000Y-51133500D02*
X69000000Y-51133500D01*
X69000000Y-51133500D02*
X69000000Y-51451500D01*
X69000000Y-51451500D02*
X69318000Y-51451500D01*
X69318000Y-51451500D02*
X69318000Y-51133500D01*
G36*
X69318000Y-51133500D02*
G01*
X69000000Y-51133500D01*
X69000000Y-51451500D01*
X69318000Y-51451500D01*
X69318000Y-51133500D01*
G37*
X66456000Y-50815500D02*
X66138000Y-50815500D01*
X66138000Y-50815500D02*
X66138000Y-51133500D01*
X66138000Y-51133500D02*
X66456000Y-51133500D01*
X66456000Y-51133500D02*
X66456000Y-50815500D01*
G36*
X66456000Y-50815500D02*
G01*
X66138000Y-50815500D01*
X66138000Y-51133500D01*
X66456000Y-51133500D01*
X66456000Y-50815500D01*
G37*
X67728000Y-52087500D02*
X67410000Y-52087500D01*
X67410000Y-52087500D02*
X67410000Y-52405500D01*
X67410000Y-52405500D02*
X67728000Y-52405500D01*
X67728000Y-52405500D02*
X67728000Y-52087500D01*
G36*
X67728000Y-52087500D02*
G01*
X67410000Y-52087500D01*
X67410000Y-52405500D01*
X67728000Y-52405500D01*
X67728000Y-52087500D01*
G37*
X67410000Y-55585500D02*
X67092000Y-55585500D01*
X67092000Y-55585500D02*
X67092000Y-55903500D01*
X67092000Y-55903500D02*
X67410000Y-55903500D01*
X67410000Y-55903500D02*
X67410000Y-55585500D01*
G36*
X67410000Y-55585500D02*
G01*
X67092000Y-55585500D01*
X67092000Y-55903500D01*
X67410000Y-55903500D01*
X67410000Y-55585500D01*
G37*
X67728000Y-53041500D02*
X67410000Y-53041500D01*
X67410000Y-53041500D02*
X67410000Y-53359500D01*
X67410000Y-53359500D02*
X67728000Y-53359500D01*
X67728000Y-53359500D02*
X67728000Y-53041500D01*
G36*
X67728000Y-53041500D02*
G01*
X67410000Y-53041500D01*
X67410000Y-53359500D01*
X67728000Y-53359500D01*
X67728000Y-53041500D01*
G37*
X67411385Y-53041369D02*
X67093385Y-53041369D01*
X67093385Y-53041369D02*
X67093385Y-53359369D01*
X67093385Y-53359369D02*
X67411385Y-53359369D01*
X67411385Y-53359369D02*
X67411385Y-53041369D01*
G36*
X67411385Y-53041369D02*
G01*
X67093385Y-53041369D01*
X67093385Y-53359369D01*
X67411385Y-53359369D01*
X67411385Y-53041369D01*
G37*
%TD*%
D13*
%TO.C,TP2*%
X98000000Y-52000000D03*
%TD*%
D14*
%TO.C,C1*%
X104225000Y-54100000D03*
X104225000Y-55650000D03*
%TD*%
D15*
%TO.C,D2*%
X69750000Y-64950000D03*
X69750000Y-66050000D03*
X72250000Y-66050000D03*
X72250000Y-64950000D03*
%TD*%
%TO.C,D1*%
X88250000Y-61950000D03*
X88250000Y-63050000D03*
X90750000Y-63050000D03*
X90750000Y-61950000D03*
%TD*%
D13*
%TO.C,TP3*%
X100000000Y-52000000D03*
%TD*%
D14*
%TO.C,C2*%
X94375000Y-61625000D03*
X94375000Y-63175000D03*
%TD*%
D13*
%TO.C,TP6*%
X99000000Y-65000000D03*
%TD*%
D16*
%TO.C,SW1*%
X99160552Y-44069315D03*
X101618008Y-45790044D03*
D17*
X104010119Y-46122167D03*
X96762705Y-43745385D03*
X98030309Y-41935059D03*
X102742515Y-47932493D03*
D18*
X97536694Y-45080840D03*
X99994150Y-46801570D03*
X101222878Y-47661934D03*
%TD*%
D13*
%TO.C,TP1*%
X96000000Y-52000000D03*
%TD*%
%TO.C,TP5*%
X102000000Y-52000000D03*
%TD*%
D19*
%TO.C,U1*%
X100855000Y-60975000D03*
X99585000Y-60975000D03*
X98315000Y-60975000D03*
X97045000Y-60975000D03*
X97045000Y-56025000D03*
X98315000Y-56025000D03*
X99585000Y-56025000D03*
X100855000Y-56025000D03*
%TD*%
D20*
%TO.C,R1*%
X103883363Y-59716637D03*
X102716637Y-60883363D03*
%TD*%
D21*
%TO.C,C4*%
X75548008Y-64048008D03*
X74451992Y-62951992D03*
%TD*%
D22*
%TO.C,BT1*%
X99080000Y-74100000D03*
X69720000Y-74100000D03*
%TD*%
D13*
%TO.C,TP4*%
X101000000Y-65000000D03*
%TD*%
M02*
